<svg width="512" height="512" viewBox="0 0 512 512" fill="none" xmlns="http://www.w3.org/2000/svg">
<path d="M376.117 218.141C387.055 218.141 394.281 220.094 397.992 224.195C401.703 228.297 402.484 235.133 400.531 244.898C398.578 255.055 394.672 262.477 389.008 266.773C383.344 271.07 374.75 273.219 363.227 273.219H345.844L356.586 218.141H376.117Z" fill="white"/>
<path d="M152.094 218.141C163.031 218.141 170.258 220.094 173.969 224.195C177.68 228.297 178.461 235.133 176.508 244.898C174.555 255.055 170.648 262.477 164.984 266.773C159.32 271.07 150.727 273.219 139.203 273.219H121.82L132.562 218.141H152.094Z" fill="white"/>
<path fill-rule="evenodd" clip-rule="evenodd" d="M256 377.125C388.678 377.125 496.234 322.647 496.234 255.445C496.234 188.243 388.678 133.766 256 133.766C123.322 133.766 15.7656 188.243 15.7656 255.445C15.7656 322.647 123.322 377.125 256 377.125ZM334.906 329.078H306.195L331.781 197.242H387.055C403.656 197.242 415.766 201.539 423.383 210.328C431 219.117 433.344 231.227 430.219 246.852C429.047 253.297 426.898 259.156 423.969 264.43C421.039 269.703 417.133 274.586 412.25 279.078C406.391 284.547 400.141 288.258 393.109 290.602C386.078 292.945 377.289 294.117 366.352 294.117H341.742L334.906 329.078ZM227.289 162.281H255.805L248.969 197.242H274.359C290.375 197.242 301.312 199.977 307.367 205.641C313.422 211.305 315.18 220.289 312.836 232.789L300.922 294.117H272.016L283.344 235.719C284.711 229.078 284.125 224.586 281.977 222.242C279.828 219.898 274.945 218.531 267.719 218.531H244.867L230.219 294.117H201.703L227.289 162.281ZM110.883 329.078H82.1719L107.758 197.242H163.031C179.633 197.242 191.742 201.539 199.359 210.328C206.977 219.117 209.32 231.227 206.195 246.852C205.023 253.297 202.875 259.156 199.945 264.43C197.016 269.703 193.109 274.586 188.227 279.078C182.367 284.547 176.117 288.258 169.086 290.602C162.055 292.945 153.266 294.117 142.328 294.117H117.719L110.883 329.078Z" fill="white"/>
<path fill-rule="evenodd" clip-rule="evenodd" d="M506 255.445C506 328.041 394.071 386.891 256 386.891C117.929 386.891 6 328.041 6 255.445C6 182.85 117.929 124 256 124C394.071 124 506 182.85 506 255.445ZM502 255.445C502 289.517 475.66 321.325 430.915 344.851C386.356 368.279 324.52 382.891 256 382.891C187.48 382.891 125.644 368.279 81.0848 344.851C36.3396 321.325 10 289.517 10 255.445C10 221.374 36.3396 189.566 81.0848 166.04C125.644 142.611 187.48 128 256 128C324.52 128 386.356 142.611 430.915 166.04C475.66 189.566 502 221.374 502 255.445Z" fill="white"/>
</svg>
