<svg width="42" height="37" viewBox="0 0 42 37" fill="none" xmlns="http://www.w3.org/2000/svg">
<path d="M28.4895 31.8869C23.5827 31.8869 27.0082 30.7474 30.5263 29.7418C34.0445 28.7361 31.8136 21.4164 30.5265 15.3695C29.2394 9.3226 29.7395 1.85523 11.584 14.0402C-6.57146 26.2251 17.7952 28.1495 25.1566 28.1495C30.2864 28.1495 34.3223 25.1956 34.3223 20.087C34.3223 14.8332 32.2601 11.4496 28.4895 7.99328C24.4175 4.26057 17.6897 6.11031 12.6579 6.3808C8.23311 6.61866 6.4601 13.0098 6.4601 18.3726C6.4601 23.7354 9.43584 24.8063 14.3707 26.8954C19.658 29.1336 24.0348 28.5431 27.0082 23.312C29.2999 19.2803 31.4016 10.1554 26.7305 7.14224C17.0699 0.910514 12.0166 8.47387 8.86197 17.3099C6.53424 23.8298 6.06505 27.7257 12.6579 30.7474C20.0725 34.1458 26.7592 29.3984 30.5264 23.6704C32.2791 21.0053 32.8294 14.4097 32.6558 11.2183C32.4223 6.9269 25.0531 4.29753 21.8236 6.3808" stroke="white" stroke-width="9" stroke-linecap="round"/>
<path d="M27.5249 29.0973C26.8215 29.0973 26.3584 28.4099 29.241 27.5957C32.1236 26.7816 29.5451 20.8357 28.4905 15.9406C27.4359 11.0455 27.8457 5.00051 12.97 14.8645C-1.90569 24.7285 18.0591 26.2864 24.0907 26.2864C28.2938 26.2864 31.6006 23.8951 31.6006 19.7596C31.6006 15.5064 29.9109 12.7674 26.8215 9.9694C23.4851 6.94768 18.5624 8.07072 14.4396 8.28969C10.8142 8.48224 8.64783 11.9309 8.64783 19.0153C8.64783 26.0996 11.2099 23.58 15.2532 25.2711C19.5854 27.083 23.1715 26.605 25.6078 22.3703C27.4855 19.1065 29.2075 11.7197 25.3802 9.28046C17.4648 4.23573 13.3245 10.3584 10.7397 17.5115C8.83247 22.7894 8.44804 25.9433 13.8499 28.3894C19.925 31.1405 25.4038 27.2973 28.4904 22.6604C29.9265 20.5029 30.3774 15.1637 30.2351 12.5801C30.0439 9.10614 24.0059 6.97761 21.3598 8.66406" stroke="black" stroke-width="6" stroke-linecap="round"/>
<circle cx="20.015" cy="18.1585" r="11.1546" fill="black"/>
<path d="M17.8729 14.7266C17.6586 15.0736 17.7882 15.8933 17.6226 16.3225C17.5027 16.6332 17.5465 17.0051 17.4438 17.3007" stroke="white" stroke-width="4" stroke-linecap="round"/>
<path d="M23.0208 14.7266C22.9868 15.6096 22.8541 16.5453 22.5918 17.3007" stroke="white" stroke-width="4" stroke-linecap="round"/>
<path d="M40.807 34.9561C40.7729 35.1032 40.6402 35.2592 40.3779 35.3851" stroke="white" stroke-width="2" stroke-linecap="round"/>
<path d="M11.8667 21.8024C12.106 21.8721 12.3022 22.16 12.5058 22.2979C12.8832 22.5535 13.3096 22.7117 13.7516 22.8247C14.9276 23.1254 16.1988 23.5676 17.4053 23.6966C18.7396 23.8392 20.0738 23.8346 21.414 23.8346C22.2785 23.8346 23.1167 23.6088 23.9896 23.6088C25.6876 23.6088 27.1776 22.3798 28.5986 21.6895" stroke="white" stroke-width="4" stroke-linecap="round"/>
</svg>
