<svg width="142" height="135" viewBox="0 0 142 135" fill="none" xmlns="http://www.w3.org/2000/svg">
<path d="M124.999 28C124.999 21.8978 125.203 17.6515 118.936 16.4231C117.505 16.1427 116.205 16.1407 114.749 16.1407C112.748 16.1407 113.471 16.5335 113.611 16.3917C113.635 16.3667 110.65 12.359 110.348 11.6543C110.055 10.972 109.703 10.1355 109.117 9.64633C107.789 8.53896 101.955 6.35627 100.19 7.79527C97.8533 9.70103 97.1732 7.39114 94.5268 6.10109C92.477 5.10185 84 3.64179 84 7.66978" stroke="white" stroke-width="9" stroke-linecap="round"/>
<path d="M124.591 93C125.571 96.6795 124.851 101.61 122.655 106.02C121.151 109.042 119.194 112.073 117.574 115.086C117.394 115.421 116.866 115.62 117.055 115.948C117.389 116.526 117.723 117.105 118.057 117.683" stroke="#11C06B" stroke-width="9" stroke-linecap="round"/>
<path d="M70 7.04425C67.8533 6.88646 60.2236 4.94881 58.693 6.78639C57.2757 8.48789 54.9542 10.1037 53.0865 11.2344C52.4966 11.5915 52.7905 12.4569 52.3974 12.717C50.532 13.9511 44.8424 12.8459 42.7191 12.8459C39.6893 12.8459 37.4639 12.1936 35.4839 14.4575C34.1965 15.9294 35.1348 20.1781 34.3563 20.5171C29.27 22.7315 27.1524 25.1358 27.1524 30.5411C27.1524 32.5055 28.7957 32.879 27.2777 34.4411C25.3868 36.387 23.1045 37.981 21.7964 40.404C21.2198 41.472 20.5645 45.1015 21.3892 46.0445C22.4348 47.24 23.7141 47.0832 24.584 47.9784C26.5972 50.0501 16.9293 61 24.8972 61" stroke="white" stroke-width="9" stroke-linecap="round"/>
<path d="M133.368 43.6924C136.457 43.6924 138.8 50.471 135.063 50.471" stroke="white" stroke-width="9" stroke-linecap="round"/>
<path d="M132.803 65.7236C135.319 68.3886 134.958 72.8405 133.932 76.174C133.209 78.5233 126.802 79.9204 128.032 81.8542C130.824 86.2403 129.218 90.8911 125.585 93.7168C123.393 95.4216 118.269 99.0518 115.291 99.0518C114.673 99.0518 113.596 97.6805 113.596 98.2987C113.596 100.574 112.461 102.281 110.835 103.791C108.102 106.328 99.9812 107.387 96.3989 106.364C95.3799 106.073 94.4611 104.906 93.3862 104.575C92.7562 104.381 86.3974 110.568 84.9129 111.228C82.146 112.458 78.33 111.479 75.3726 111.479C72.5386 111.479 70.7247 110.046 68.0291 109.22C66.1269 108.637 65.5503 107.767 64.1377 106.96C62.6857 106.131 63.9114 106.206 62.3803 107.023C58.2924 109.203 55.8871 106.971 52 103.791C49.8956 102.069 48.2257 102.451 47 100C45.7738 97.5476 43.2773 100.167 40.5 101C39.1004 101.42 38.2052 96.9642 37 96C35.0757 94.4606 31.8128 95.9714 31.5 93C31.1386 89.5667 27.734 93.164 27.734 89.6685C27.734 88.2852 27.8107 86.8761 27.734 85.4946C27.6859 84.6285 26.3751 85.1028 25.9138 84.3648C24.6491 82.3414 23.1163 80.5093 25.4745 78.1511" stroke="white" stroke-width="9" stroke-linecap="round"/>
<path d="M36.8722 54.5878C29.5258 60.3568 29.9233 56.946 22.6666 62.3026C19.7799 64.4334 7.87931 76.4067 5.00089 79.2851" stroke="#11C06B" stroke-width="9" stroke-linecap="round"/>
<path d="M75.7837 98C76.3451 103.79 75.0443 110.457 72.3143 115.586C70.444 119.099 68.1159 122.384 66.1299 125.824C65.9097 126.206 65.3531 126.207 65.5059 126.778C65.7758 127.785 66.0456 128.792 66.3154 129.799" stroke="#11C06B" stroke-width="9" stroke-linecap="round"/>
<path d="M89.4836 30.7256H89.8154" stroke="white" stroke-width="7" stroke-linecap="round"/>
<path d="M74.2451 31.8562C73.8144 31.7408 73.5932 31.8381 73.1976 31.9191" stroke="white" stroke-width="7" stroke-linecap="round"/>
<path d="M86.501 36.9229C85.9751 36.4661 85.4452 36.1385 84.9091 35.828C84.6236 35.6626 84.2647 35.6558 84.0073 35.2678C83.4465 34.4228 83.0524 34.4543 82.6871 35.015C81.8624 36.2807 80.6282 37.1637 79.4359 37.439" stroke="white" stroke-width="3" stroke-linecap="round"/>
</svg>
