<svg width="163" height="172" viewBox="0 0 163 172" fill="none" xmlns="http://www.w3.org/2000/svg">
<path d="M69.9297 33.564C76.1005 12.3703 77.0262 11.7433 72.1771 10.1663" stroke="#343440" stroke-width="7" stroke-linecap="round"/>
<path d="M25.998 132.186C28.9611 121.807 24.9006 117.805 35.3281 110.473" stroke="#343440" stroke-width="7" stroke-linecap="round"/>
<path d="M104.882 46.8901C111.053 25.6965 111.978 25.0695 107.129 23.4925" stroke="#343440" stroke-width="7" stroke-linecap="round"/>
<rect width="105" height="92" rx="46" transform="matrix(0.871852 0.48977 0.48977 -0.871852 10.0195 101.417)" fill="white" stroke="white" stroke-width="17" stroke-linecap="round" stroke-linejoin="round" stroke-dasharray="1 15"/>
<rect x="59.5869" y="94.8525" width="6" height="6" rx="3" transform="rotate(29.3255 59.5869 94.8525)" fill="#343440"/>
<rect x="77.9629" y="106.323" width="6" height="6" rx="3" transform="rotate(29.3255 77.9629 106.323)" fill="#343440"/>
<rect x="72.0566" y="86.9468" width="9" height="15" rx="4.5" transform="rotate(29.3255 72.0566 86.9468)" fill="white" stroke="#343440" stroke-width="2" stroke-linecap="round" stroke-linejoin="round"/>
<line x1="73.4787" y1="124.588" x2="70.3457" y2="123.259" stroke="#343440" stroke-width="3" stroke-linecap="round"/>
<line x1="53.8078" y1="114.684" x2="50.6748" y2="113.355" stroke="#343440" stroke-width="3" stroke-linecap="round"/>
<path d="M113.76 141.342C124.721 113.664 116.58 119.987 114.525 103.228" stroke="#343440" stroke-width="7" stroke-linecap="round"/>
</svg>
