<svg width="128" height="131" viewBox="0 0 128 131" fill="none" xmlns="http://www.w3.org/2000/svg">
<path d="M38.1686 59.8145C31.9353 59.8145 25.9018 60.0601 20.1173 62.7008C15.8506 64.6487 10.9541 70.217 10.9541 75.094C10.9541 76.8746 10.8206 82.0809 13.6343 82.0809C16.2487 82.0809 17.4923 82.5236 16.4062 84.9672C15.1164 87.8692 20.2679 90.1691 22.408 90.3277C24.6521 90.4939 26.8999 90.74 29.2575 90.74C31.794 90.74 30.3299 93.2982 30.7236 95.0696C31.475 98.4511 39.359 99.379 41.8339 99.8115C49.4388 101.141 56.4048 101.873 64.1461 101.873C64.7543 101.873 65.682 100.805 65.7726 101.53C66.0091 103.422 65.7221 105.053 67.2387 106.569C68.7982 108.129 74.3576 108.033 76.3331 108.058C80.951 108.118 85.5739 108.058 90.1923 108.058C93.2688 108.058 95.2607 107.849 97.958 106.501C100.95 105.005 103.494 103.975 105.609 101.255C108.371 97.7043 107.934 94.2793 106.617 90.3277" stroke="white" stroke-width="9" stroke-linecap="round"/>
<path d="M43.6214 59.4961C38.0218 59.4961 32.6017 59.7139 27.4053 62.0556C23.5724 63.7828 19.1738 68.7205 19.1738 73.0451C19.1738 74.624 19.0538 79.2407 21.5815 79.2407C23.9301 79.2407 25.0472 79.6332 24.0715 81.8002C22.9129 84.3734 27.5406 86.4129 29.4631 86.5535C31.4791 86.7009 33.4984 86.9191 35.6162 86.9191C37.8949 86.9191 36.5796 89.1876 36.9333 90.7583C37.6083 93.7569 44.6908 94.5797 46.914 94.9632C53.7457 96.1417 60.0035 96.7914 66.9577 96.7914C67.5041 96.7914 68.3375 95.8446 68.4188 96.4867C68.6313 98.1646 68.3735 99.6108 69.7359 100.956C71.1368 102.339 76.131 102.253 77.9056 102.276C82.054 102.329 86.207 102.276 90.3558 102.276C93.1195 102.276 94.9089 102.091 97.332 100.895C100.02 99.5681 102.305 98.655 104.205 96.2429C106.686 93.0947 106.294 90.0576 105.111 86.5535" stroke="white" stroke-opacity="0.38" stroke-width="12" stroke-linecap="round"/>
<path d="M45.5908 57.7529C43.7498 59.8241 46.778 63.9687 47.8816 65.5874C50.7427 69.7837 57.0415 72.2801 61.718 73.6051C71.2841 76.3156 80.5136 80.7942 90.284 82.4934C93.0144 82.9682 95.7414 83.3275 98.5079 83.6388C100.561 83.8697 103.935 83.4086 105.793 84.2344C107.141 84.8338 108.728 84.4459 109.504 83.089C110.474 81.3913 111.153 80.4742 111.153 78.37C111.153 77.3848 110.313 75.0637 109.504 74.6589" stroke="#10C06B" stroke-width="9" stroke-linecap="round"/>
<path d="M47.6523 55.6915C47.6523 50.5473 53.4496 50.1333 57.1362 51.8888C59.1163 52.8317 67.6412 56.9787 72.6769 56.9787C77.7126 56.9787 77.0832 53.8314 78.3421 51.8888" stroke="#10C06B" stroke-width="9" stroke-linecap="round"/>
<path d="M104.457 29.8491C105.334 27.95 106.407 24.3925 104.567 22.7043C102.592 20.8934 99.8087 19.2972 96.967 19.3967C90.093 19.6374 89.7007 28.3221 87.0553 32.9041" stroke="#10C06B" stroke-width="9" stroke-linecap="round"/>
</svg>
