<svg width="530" height="89" viewBox="0 0 530 89" fill="none" xmlns="http://www.w3.org/2000/svg">
<path d="M0 79.2V69.4H39.2V49.8H9.8V40H19.6V10.6H9.8V0.799996H78.4V10.6H68.6V40H78.4V49.8H49V69.4H88.2V79.2H0ZM29.4 40H58.8V10.6H29.4V40ZM98 79.2V69.4H186.2V79.2H98ZM176.4 40V49.8H107.8V0.799996H176.4V10.6H117.6V20.4H176.4V30.2H117.6V40H176.4ZM196 49.8V40H235.2V49.8H196ZM245 49.8V40H284.2V30.2H254.8V20.4H264.6V10.6H254.8V0.799996H323.4V10.6H313.6V20.4H323.4V30.2H294V40H333.2V49.8H323.4V69.4H274.4V59.6H254.8V49.8H245ZM303.8 20.4V10.6H274.4V20.4H303.8ZM323.4 79.2V89H254.8V69.4H274.4V79.2H323.4ZM343 79.2V30.2H382.2V10.6H343V0.799996H392V40H352.8V69.4H392V79.2H343ZM421.4 89H411.6V0.799996H421.4V89ZM441 79.2V69.4H480.2V49.8H460.6V40H509.6V49.8H490V69.4H529.2V79.2H441ZM519.4 40H509.6V10.6H519.4V40ZM450.8 40V10.6H460.6V40H450.8ZM460.6 10.6V0.799996H509.6V10.6H460.6Z" fill="white"/>
</svg>
