<svg width="191" height="274" viewBox="0 0 191 274" fill="none" xmlns="http://www.w3.org/2000/svg">
<path d="M28.0282 92.7783C18.3103 92.7783 20.5916 102.771 24.2429 107.465C24.8554 108.253 23.3108 107.712 22.2745 108.071C18.5102 109.374 17.522 112.796 17.2021 116.475C16.8662 120.338 16.1413 126.465 17.2021 130.178C18.9714 136.37 10.3128 138.236 10.3128 145.319C10.3128 149.51 13.4769 154.293 17.1264 156.524C21.0796 158.939 18.7746 159.446 15.7637 161.217C10.9656 164.04 12.524 175.107 16.0665 178.327C17.221 179.377 24.4826 183.387 24.3943 183.475C21.8839 185.986 14.1563 186.641 13.1139 190.289C11.2025 196.979 7.44647 209.973 18.4891 209.973C24.1123 209.973 11.5704 214.629 9.78284 215.424C6.26689 216.986 6.22461 223.175 6.22461 226.25C6.22461 230.587 7.78455 234.222 11.6755 236.167C15.6751 238.167 15.9402 237.086 12.3569 239.953C9.73793 242.048 7.34506 258.696 13.0382 259.031C16.2178 259.218 17.0002 256.406 15.688 260.999C15.0778 263.135 12.8049 265.702 15.7637 267.51" stroke="url(#paint0_linear_646_2129)" stroke-width="12" stroke-linecap="round"/>
<path d="M36.2041 69.6119C37.5849 66.6778 38.0715 64.161 41.655 64.161C46.2382 64.161 48.4686 64.9526 48.4686 59.3915C48.4686 51.0612 51.5967 37.3745 62.7016 43.7201C67.9782 46.7354 61.494 46.7799 67.5468 43.4173C76.2113 38.6037 88.601 40.0853 98.1324 39.0263C103.596 38.4193 101.271 42.3964 106.006 40.6918C110.556 39.0537 114.388 37.1855 119.33 38.9506C123.052 40.2796 124.154 50.3823 126.977 50.3823C133.275 50.3823 140.389 47.4571 146.888 49.4738C149.276 50.2151 153.399 52.4822 153.399 55.3033C153.399 59.2933 160.72 60.0641 163.543 61.4355C175.202 67.0986 162.169 70.2529 168.691 76.1227C172.153 79.2378 180.635 90.4466 173.839 94.4438C169.02 97.2789 170.797 96.5283 172.78 99.5919C174.9 102.869 178.042 104.977 179.972 108.45C182.365 112.758 184.939 117.1 182.016 121.85C180.03 125.077 178.531 124.937 180.729 128.966C183.712 134.435 184.741 134.954 184.741 141.534C184.741 147.139 180.553 150.825 175.884 153.42C172.35 155.383 184.741 172.69 184.741 179.236C184.741 182.612 184.508 185.525 181.94 188.093C181.083 188.95 178.238 189.31 178.003 190.365C177.207 193.948 180.796 196.82 182.47 199.525C184.747 203.204 184.741 206.491 184.741 210.654C184.741 216.758 170.571 211.49 174.596 218.906C177.361 223.999 193.96 242.096 178.23 242.678C174.592 242.813 176.266 246.254 178.609 248.129C179.961 249.211 179.563 255.216 177.928 253.58" stroke="url(#paint1_linear_646_2129)" stroke-width="12" stroke-linecap="round"/>
<path d="M26.0516 40.8905C26.0516 29.5049 24.776 15.4609 34.9093 7.57943C42.8627 1.39343 45.1298 15.0029 45.1298 20.4496" stroke="#10C06B" stroke-width="12" stroke-linecap="round"/>
<path d="M149 23.5665C149.75 16.8163 156.805 7.95673 163.233 14.0274C168.699 19.1897 172.019 25.3727 169.441 33.1056" stroke="#10C06B" stroke-width="12" stroke-linecap="round"/>
<path d="M70.9145 89.0334C74.9237 86.4468 75.3959 86.3084 80 86.3084C84.1582 85.5087 84.707 86.3084 89.1144 86.3084C94.571 86.3084 99.9256 85.8584 105.389 85.8584C111.8 85.8584 118.966 86.0507 125.164 87.8584C130.595 89.4424 135.937 90.6134 138.139 96.5583C139.22 99.4761 140.039 102.272 140.039 105.383C140.039 108.393 140.611 111.994 139.939 114.908C139.028 118.854 137.386 121.709 135.539 125.208C134.376 127.411 132.808 128.16 131.039 129.708C129.766 130.822 126.963 131.567 125.289 131.858C121.503 132.517 117.901 133.579 114.164 134.458C110.338 135.358 106.676 135.358 102.767 135.358H102.639C96.927 135.358 90.1506 135.841 84.5894 134.358C80.2064 133.189 74.5026 132.762 70.7145 130.158C67.9834 128.28 65.8293 124.582 64.3396 121.658C62.8259 118.687 62.098 114.215 61.5587 110.9L61.5396 110.783C60.8542 106.573 61.0964 101.902 62.6396 97.9083C64.3184 93.563 67.0741 91.5111 70.9145 89.0334Z" fill="white" stroke="white" stroke-width="18" stroke-linecap="round"/>
<path d="M85.8865 93.8867C85.7599 96.292 85 98.5557 85 100.979" stroke="black" stroke-width="9" stroke-linecap="round"/>
<path d="M114.254 93C113.439 94.8338 112.481 97.1816 112.481 99.2054" stroke="black" stroke-width="9" stroke-linecap="round"/>
<path d="M95.2271 111C96.7106 112.761 98.6405 115.477 99.913 117.625C101.076 119.588 103.947 113.267 105.227 111.917" stroke="black" stroke-width="9" stroke-linecap="round"/>
<path d="M99.9785 122.524C99.9785 125.028 99.3397 130.008 98.2056 132.276" stroke="black" stroke-width="9" stroke-linecap="round"/>
<defs>
<linearGradient id="paint0_linear_646_2129" x1="17.1264" y1="92.7783" x2="17.1264" y2="267.51" gradientUnits="userSpaceOnUse">
<stop offset="0.567708" stop-color="white"/>
<stop offset="1" stop-color="white" stop-opacity="0"/>
</linearGradient>
<linearGradient id="paint1_linear_646_2129" x1="110.559" y1="38.2373" x2="110.559" y2="253.86" gradientUnits="userSpaceOnUse">
<stop offset="0.567708" stop-color="white"/>
<stop offset="1" stop-color="white" stop-opacity="0"/>
</linearGradient>
</defs>
</svg>
