<svg width="132" height="145" viewBox="0 0 132 145" fill="none" xmlns="http://www.w3.org/2000/svg">
<path d="M98.5439 49.2896C112.374 32.0858 113.47 31.8621 109.597 28.5452" stroke="#343440" stroke-width="7" stroke-linecap="round"/>
<path d="M71.1814 4.88916C81.8539 3.27793 48.5392 28.7639 59.5379 35.2082" stroke="#343440" stroke-width="7" stroke-linecap="round"/>
<path d="M102.539 91.4531C124.382 88.2723 125.337 88.8544 124.76 83.7882" stroke="#343440" stroke-width="7" stroke-linecap="round"/>
<rect width="105" height="92" rx="46" transform="matrix(-0.0837961 0.996483 0.996483 0.0837961 13.5615 27.7739)" fill="#F4F4F4" stroke="#F4F4F4" stroke-width="17" stroke-linecap="round" stroke-linejoin="round" stroke-dasharray="1 15"/>
<rect width="97.3032" height="92" rx="46" transform="matrix(-0.0837961 0.996483 0.996483 0.0837961 13.5615 35.3892)" fill="white" stroke="white" stroke-width="17" stroke-linecap="round" stroke-linejoin="round" stroke-dasharray="1 15"/>
<path d="M67.3047 67.4492C68.9651 67.0523 68.718 64.0209 67.2136 64.0473" stroke="#343440" stroke-width="3" stroke-linecap="round"/>
<path d="M65.0459 57.2549C66.2927 55.2979 65.7927 51.7979 64.5413 50.8565" stroke="#343440" stroke-width="3" stroke-linecap="round"/>
<path d="M63.0459 78.2544C64.2927 76.2974 63.7927 72.7974 62.5413 71.856" stroke="#343440" stroke-width="3" stroke-linecap="round"/>
<path d="M92.0818 89.0054C82.5818 106.005 78.0818 98.0054 70.6826 113.223" stroke="#343440" stroke-width="7" stroke-linecap="round"/>
</svg>
