<svg width="517" height="74" viewBox="0 0 517 74" fill="none" xmlns="http://www.w3.org/2000/svg">
<path d="M0.0839844 33V24.8H8.28398V16.6H32.884V24.8H41.084V33H49.284V0.199997H57.484V49.4H65.684V0.199997H73.884V74H8.28398V41.2H16.484V49.4H49.284V41.2H32.884V33H24.684V41.2H16.484V33H0.0839844ZM0.0839844 16.6V8.4H8.28398V16.6H0.0839844ZM16.484 57.6V65.8H65.684V57.6H16.484ZM32.884 16.6V8.4H41.084V16.6H32.884ZM32.884 0.199997V8.4H8.28398V0.199997H32.884Z" fill="white"/>
<path d="M114.916 65.8V57.6H188.716V65.8H114.916ZM180.516 33V41.2H123.116V33H131.316V8.4H123.116V0.199997H180.516V8.4H172.316V33H180.516ZM139.516 33H164.116V8.4H139.516V33ZM196.916 49.4V41.2H229.716V33H205.116V16.6H221.516V24.8H262.516V33H237.916V41.2H270.716V49.4H196.916ZM213.316 57.6V65.8H262.516V74H205.116V57.6H213.316ZM262.516 16.6H221.516V8.4H205.116V0.199997H262.516V16.6ZM278.916 65.8V57.6H352.716V65.8H278.916ZM344.516 33V41.2H287.116V0.199997H344.516V8.4H295.316V16.6H344.516V24.8H295.316V33H344.516ZM360.916 33V8.4H369.116V33H360.916ZM434.716 65.8V74H369.116V49.4H377.316V65.8H434.716ZM434.716 49.4H426.516V0.199997H434.716V49.4ZM393.716 33V41.2H369.116V33H393.716ZM393.716 0.199997V8.4H369.116V0.199997H393.716ZM393.716 8.4H401.916V16.6H410.116V0.199997H418.316V49.4H410.116V24.8H401.916V33H393.716V8.4ZM442.916 65.8V57.6H516.716V65.8H442.916ZM508.516 33V41.2H451.116V0.199997H508.516V8.4H459.316V33H508.516Z" fill="#10C06B"/>
</svg>
