<svg width="185" height="188" viewBox="0 0 185 188" fill="none" xmlns="http://www.w3.org/2000/svg">
<path d="M81.7527 41.1838C83.0867 33.0092 83.8528 24.4875 84.3048 15.7948C84.4846 12.3369 84.6156 7.20823 86.7024 5.12138" stroke="#11C06B" stroke-width="9" stroke-linecap="round"/>
<path d="M83.549 44.4043C88.947 39.0062 92.5568 35.1033 98.1617 38.5347C99.4407 39.3178 100.38 40.2533 101.429 41.3029C102.873 42.746 102.003 42.5717 102.028 42.346C102.033 42.3062 107.73 40.9128 108.571 40.5074C109.386 40.115 110.38 39.6287 111.235 39.6188C113.172 39.5965 119.309 41.8714 119.308 44.4167C119.307 47.7874 121.841 46.2344 124.89 47.0011C127.252 47.5949 134.655 52.4148 131.091 55.978" stroke="white" stroke-width="9" stroke-linecap="round"/>
<path d="M44.9829 82.1963C40.2626 78.8771 33.8037 76.7866 27.9241 76.7152C23.8963 76.6663 19.8257 77.1358 15.8011 77.2258C15.3547 77.2357 15.0605 77.7297 14.6469 77.3161C13.9166 76.5858 13.1863 75.8555 12.456 75.1252" stroke="#11C06B" stroke-width="9" stroke-linecap="round"/>
<path d="M140.478 65.7615C142.116 67.1649 148.964 71.1286 148.681 73.5805C148.418 75.8508 148.861 78.698 149.343 80.8627C149.495 81.5464 148.642 81.9822 148.727 82.4543C149.131 84.6943 153.984 87.9028 155.488 89.4072C157.635 91.5538 159.697 92.645 159.415 95.7326C159.232 97.74 155.405 100.237 155.705 101.041C157.66 106.292 157.371 109.582 153.349 113.605C151.887 115.066 150.445 114.18 150.358 116.418C150.249 119.206 150.68 122.009 149.803 124.739C149.417 125.942 147.181 129.108 145.894 129.225C144.264 129.374 143.474 128.351 142.192 128.401C139.224 128.516 137.924 143.514 132.279 137.869" stroke="white" stroke-width="9" stroke-linecap="round"/>
<path d="M67.5714 49.1959C65.387 47.0115 58.937 50.1479 61.5799 52.7908" stroke="white" stroke-width="9" stroke-linecap="round"/>
<path d="M52.3926 65.1734C48.7285 65.278 45.8361 68.6816 44.2042 71.764C43.0541 73.9363 46.5971 79.4552 44.3595 79.9524C39.2845 81.0802 37.1314 85.5044 37.7023 90.0714C38.0467 92.8268 39.1029 99.0169 41.2084 101.122C41.6455 101.56 43.3764 101.351 42.9393 101.788C41.3301 103.397 40.9266 105.407 41.0087 107.624C41.1467 111.35 41.1028 118.19 44.3595 119.999C45.2859 120.514 44.506 127.473 45.5 127.999C46.0825 128.307 53.4959 129.697 54.0791 131.213C55.166 134.039 58.5563 136.045 60.6475 138.137C62.6515 140.141 64.9478 140.41 67.4379 141.732C69.1952 142.664 70.2176 142.457 71.7873 142.885C73.4007 143.325 72.4804 142.512 72.9856 144.173C74.3345 148.605 77.7743 153.77 82.7717 154.269C85.4772 154.54 85.4 152.866 88 151.999C90.6012 151.132 91.6253 151.716 93 154.269C93.6928 155.556 95.8818 159.416 97.4158 159.586C99.865 159.859 102.178 156.149 104.5 154.269C107.183 152.097 107.284 158.871 109.756 156.4C110.734 155.422 111.676 154.371 112.707 153.448C113.354 152.87 113.945 154.132 114.793 153.936C117.118 153.4 119.497 153.188 119.497 149.853" stroke="white" stroke-width="9" stroke-linecap="round"/>
<path d="M72.269 132.109C67.2758 129.124 60.6942 127.447 54.8902 127.719C50.9142 127.906 46.9489 128.604 42.9902 128.927C42.5511 128.963 42.3116 129.465 41.8615 129.083C41.0668 128.408 40.2722 127.733 39.4775 127.059" stroke="#11C06B" stroke-width="9" stroke-linecap="round"/>
<path d="M139.641 115.841C148.214 114.442 157.151 113.638 166.267 113.164C169.893 112.976 175.271 112.838 177.46 110.65" stroke="#11C06B" stroke-width="9" stroke-linecap="round"/>
<path d="M95.5325 68.5706L95.2979 68.3359" stroke="white" stroke-width="7" stroke-linecap="round"/>
<path d="M105.509 80.1452C105.895 80.3681 105.982 80.5934 106.205 80.9304" stroke="white" stroke-width="7" stroke-linecap="round"/>
<path d="M92.8018 74.9258C93.4966 74.9747 94.1029 75.1177 94.7016 75.2772C95.0204 75.3622 95.2789 75.6111 95.7354 75.5188C96.7294 75.3178 96.9858 75.6187 96.8476 76.2735C96.5358 77.7517 96.7842 79.2488 97.4325 80.2865" stroke="white" stroke-width="3" stroke-linecap="round"/>
</svg>
