<svg width="187" height="120" viewBox="0 0 187 120" fill="none" xmlns="http://www.w3.org/2000/svg">
<path d="M41.2507 8.19912C44.6612 7.26334 50.4041 7.88473 55.1037 9.14435C59.8033 10.404 67.652 15.8239 68.5252 17.8169C74.0539 30.4358 72.4064 46.4501 67.1431 58.9617C64.2322 65.8813 58.7988 72.3103 52.1701 76.0537C41.1074 82.301 24.7101 78.7823 15.654 70.542C5.59659 61.3906 7.79356 43.3852 13.0338 32.4821C16.3099 25.6656 22.4617 18.0792 28.8492 13.9702C32.6403 11.5314 36.8869 9.39644 41.2507 8.19912Z" stroke="#10C06B" stroke-width="9" stroke-linecap="round"/>
<path d="M99.526 23.8144C102.937 22.8786 108.68 23.5 113.379 24.7596C118.079 26.0192 125.927 31.4391 126.801 33.4321C132.329 46.051 130.682 62.0654 125.418 74.5769C122.508 81.4965 117.074 87.9255 110.445 91.6689C99.3828 97.9162 82.9854 94.3975 73.9294 86.1572C63.872 77.0058 66.069 59.0004 71.3092 48.0973C74.5853 41.2809 80.737 33.6944 87.1246 29.5854C90.9157 27.1467 95.1623 25.0117 99.526 23.8144Z" stroke="#10C06B" stroke-width="9" stroke-linecap="round"/>
<path d="M43.5344 43.3145C42.5765 43.1683 40.2455 49.2403 39.9363 50.3032C39.4336 52.0313 38.7012 53.6248 38.2379 55.3539" stroke="white" stroke-width="9" stroke-linecap="round"/>
<path d="M101.776 57.979C100.199 59.8456 99.4456 63.5914 98.8116 65.9578C98.4725 67.2232 97.7708 68.2992 97.4153 69.6257" stroke="white" stroke-width="9" stroke-linecap="round"/>
<path d="M54.7842 9.05859C57.4341 9.76864 60.1809 11.4567 62.6082 12.4614C66.9994 14.2791 71.5206 16.5272 76.0594 17.8651C81.9587 19.6041 86.9517 23.8895 92.8342 25.4657" stroke="#10C06B" stroke-width="9" stroke-linecap="round"/>
<path d="M129.798 34.335C131.571 34.8102 132.9 37.1212 134.397 38.3618C136.824 40.3744 139.236 42.2851 141.624 44.3954C142.9 45.5228 143.85 47.2293 145.181 48.2615C146.084 48.9624 147.078 49.4617 147.963 50.1912C149.778 51.686 151.704 53.0008 153.596 54.353C156.202 56.2154 158.556 58.4728 161.097 60.5309C162.523 61.6861 163.911 63.1294 165.471 63.953C166.673 64.5874 167.441 66.1622 168.795 66.5251" stroke="#10C06B" stroke-width="9" stroke-linecap="round"/>
<path d="M95.8281 95.4287C97.2408 96.1725 98.7843 96.0814 100.276 96.4065C102.429 96.8758 104.491 97.8685 106.658 98.2557C109.92 98.8386 113.151 99.479 116.444 99.9066C123.765 100.857 131.174 102.256 138.249 104.719C141.55 105.868 145.119 106.512 148.545 106.957C150.296 107.184 152.039 107.285 153.693 107.985" stroke="#10C06B" stroke-width="9" stroke-linecap="round"/>
<path d="M29.0664 78.0186C32.2671 78.7079 35.318 79.7742 38.5109 80.462C40.8654 80.9691 43.22 81.4762 45.5746 81.9834C47.399 82.3764 49.2235 82.7693 51.0479 83.1623C52.9736 83.5771 54.8022 84.3801 56.7021 84.7893C60.9827 85.7113 65.2633 86.6333 69.544 87.5553C70.7215 87.8089 71.8225 88.2507 72.9873 88.5016C74.8099 88.8941 77.2288 88.7173 78.7125 89.7347" stroke="#10C06B" stroke-width="9" stroke-linecap="round"/>
<path d="M168.883 66.549C168.51 69.1438 170.319 72.2729 170.439 74.9688C170.558 77.6659 170.36 80.0057 169.673 82.5694C168.198 88.0732 166.621 93.2799 164.178 98.4235C162.939 101.032 161.096 102.655 158.99 104.701C158.2 105.468 157.292 105.928 156.441 106.66C156.049 106.998 155.341 107.062 154.98 107.372C153.458 108.681 153.69 108.138 154.021 106.208" stroke="#10C06B" stroke-width="9" stroke-linecap="round"/>
<path d="M174.831 71.248C175.774 71.7284 175.465 73.8652 175.586 74.5873C175.925 76.6127 175.741 78.7108 175.698 80.7239C175.665 82.2642 175.184 84.1678 174.79 85.6361C174.452 86.8984 174.377 88.1961 174.048 89.4228C173.137 92.8217 172.176 95.9791 170.864 99.2147C170.519 100.067 169.651 100.624 169.199 101.417C168.72 102.259 168.082 103.012 167.476 103.784C166.802 104.641 166.08 105.627 165.345 106.427C164.952 106.853 164.628 107.589 163.979 107.681" stroke="#10C06B" stroke-width="9" stroke-linecap="round"/>
</svg>
