<svg width="151" height="151" viewBox="0 0 151 151" fill="none" xmlns="http://www.w3.org/2000/svg">
<path d="M130.197 70.7368C131.091 69.8434 131.717 68.8301 131.717 67.5287" stroke="#10C06B" stroke-width="6" stroke-linecap="round"/>
<path d="M145 64.6768L145.169 64.8456" stroke="#10C06B" stroke-width="6" stroke-linecap="round"/>
<path d="M110.473 72.3575C88.638 76.668 68.9297 81.7197 54.425 81.7197C48.7775 81.7197 41.3345 80.5286 35.928 82.2181C34.2474 82.7433 32.6339 82.3662 30.9991 82.7165C30.3492 82.8558 41.8306 91.2792 42.629 91.7989C52.3557 98.1305 62.2621 104.994 72.6451 110.185C75.7962 111.761 73.4058 99.6194 73.3651 99.2752C71.7881 85.959 70.9577 72.3507 68.3808 59.1799C67.8711 56.5746 67.4984 47.2141 63.3412 51.3713C56.173 58.5395 48.6365 65.2129 41.4106 72.305C37.8132 75.8358 32.1846 80.3455 30.0023 84.7102" stroke="#10C06B" stroke-width="12" stroke-linecap="round"/>
</svg>
