<svg width="99" height="81" viewBox="0 0 99 81" fill="none" xmlns="http://www.w3.org/2000/svg">
<path d="M14.0367 24C11.223 24.8441 8.76119 30.3836 7.044 32.7686C4.88649 35.7651 3.99096 39.1261 6.60002 42.4806C8.54826 44.9855 16.4272 47.8347 15.9791 50.9717C15.1276 56.9322 8.93814 57.3077 16.5895 59.9623C20.7208 61.3956 17.7182 64.6222 19.8084 67.1769C21.5097 69.2563 22.3406 72.1996 24.5257 73.9476C29.515 77.9391 41.9683 76.4645 47.0021 73.9476" stroke="#10C06B" stroke-width="9" stroke-linecap="round"/>
<path d="M84.9653 57.4189C87.779 56.5748 90.2408 51.0354 91.958 48.6504C94.1155 45.6538 95.011 42.2928 92.4019 38.9383C90.4537 36.4335 82.5747 33.5843 83.0229 30.4472C83.8744 24.4867 90.0638 24.1112 82.4124 21.4567C78.2811 20.0234 81.2838 16.7967 79.1936 14.242C77.4923 12.1626 76.6613 9.21936 74.4763 7.47133C69.4869 3.47985 57.0336 4.95445 51.9999 7.47133" stroke="#10C06B" stroke-width="9" stroke-linecap="round"/>
<path d="M49.0431 26.2051C49.3561 29.9621 49.63 33.5575 49.63 37.3573C49.63 40.6292 48.4561 43.838 48.4561 47.0421C48.4561 49.9364 47.8691 52.6463 47.8691 55.553" stroke="white" stroke-width="9" stroke-linecap="round"/>
</svg>
