<svg width="46" height="46" viewBox="0 0 46 46" fill="none" xmlns="http://www.w3.org/2000/svg">
<path d="M32.5833 36.4167H36.4167V26.8333H19.1667V9.58333H9.58333V13.4167H13.4167V17.25H9.58333V21.0833H15.3333V24.9167H9.58333V28.75H13.4167V32.5833H9.58333V36.4167H13.4167V32.5833H17.25V36.4167H21.0833V30.6667H24.9167V36.4167H28.75V32.5833H32.5833V36.4167ZM23 23H38.3333C38.8417 23 39.3292 23.2019 39.6886 23.5614C40.0481 23.9208 40.25 24.4083 40.25 24.9167V38.3333C40.25 38.8417 40.0481 39.3292 39.6886 39.6886C39.3292 40.0481 38.8417 40.25 38.3333 40.25H7.66667C7.15834 40.25 6.67082 40.0481 6.31138 39.6886C5.95193 39.3292 5.75 38.8417 5.75 38.3333V7.66667C5.75 7.15834 5.95193 6.67082 6.31138 6.31138C6.67082 5.95193 7.15834 5.75 7.66667 5.75H21.0833C21.5917 5.75 22.0792 5.95193 22.4386 6.31138C22.7981 6.67082 23 7.15834 23 7.66667V23Z" fill="#09121F"/>
</svg>
