<svg width="184" height="230" viewBox="0 0 184 230" fill="none" xmlns="http://www.w3.org/2000/svg">
<path d="M172.411 191.746C173.286 195.379 171.73 199.082 168.682 201.243V201.243C167.516 202.07 166.195 202.631 164.782 202.844C158.491 203.795 139.851 206.082 130.643 201.482C134.036 186.633 146.868 176.164 157.015 162.118C165.573 167.735 170.345 183.16 172.411 191.746Z" fill="#D5D4E2"/>
<path d="M11.1141 192.746C10.2397 196.379 11.7953 200.082 14.8436 202.243V202.243C16.0094 203.07 17.3299 203.631 18.743 203.844C25.0347 204.795 43.6739 207.082 52.8829 202.482C49.489 187.633 36.6575 177.164 26.5103 163.118C17.9525 168.735 13.1806 184.16 11.1141 192.746Z" fill="#D5D4E2"/>
<path d="M162.525 147C162.525 187.869 129.394 221 88.5254 221V221C47.6563 221 14.5254 187.869 14.5254 147L14.5254 0.000109132L162.525 0.00012207L162.525 147Z" fill="white" stroke="white" stroke-width="17" stroke-linecap="round" stroke-linejoin="round" stroke-dasharray="1 15"/>
<rect x="132.525" y="194" width="88" height="55" rx="27.5" transform="rotate(-180 132.525 194)" fill="#D5D4E2"/>
<path d="M102.525 152C102.525 159.732 96.2574 166 88.5254 166V166C80.7934 166 74.5254 159.732 74.5254 152L74.5254 139L102.525 139L102.525 152Z" fill="white"/>
<rect x="127.525" y="185" width="29" height="29" rx="14.5" transform="rotate(-180 127.525 185)" fill="white"/>
<rect x="77.5254" y="184" width="29" height="29" rx="14.5" transform="rotate(-180 77.5254 184)" fill="white"/>
<rect x="118.525" y="183" width="15" height="15" rx="7.5" transform="rotate(-180 118.525 183)" fill="#343440"/>
<rect width="4" height="4" rx="2" transform="matrix(-1 -8.74228e-08 -8.74228e-08 1 116.525 171)" fill="white"/>
<rect x="72.5254" y="182" width="15" height="15" rx="7.5" transform="rotate(-180 72.5254 182)" fill="#343440"/>
<rect width="4" height="4" rx="2" transform="matrix(-1 -8.74228e-08 -8.74228e-08 1 70.5254 170)" fill="white"/>
<line x1="93.417" y1="156.479" x2="89.4961" y2="153.343" stroke="#343440" stroke-width="3" stroke-linecap="round"/>
<line x1="1.5" y1="-1.5" x2="6.52129" y2="-1.5" transform="matrix(0.780869 -0.624695 -0.624695 -0.780869 81.7441 156.245)" stroke="#343440" stroke-width="3" stroke-linecap="round"/>
<line x1="88.2793" y1="151.5" x2="88.2793" y2="140.5" stroke="#343440" stroke-width="3" stroke-linecap="square"/>
</svg>
