<svg width="164" height="153" viewBox="0 0 164 153" fill="none" xmlns="http://www.w3.org/2000/svg">
<path d="M66.0054 44.1363C59.2554 32.445 68.2803 15.104 77.5051 13.3723" stroke="#202033" stroke-width="7" stroke-linecap="round"/>
<rect width="105" height="92" rx="46" transform="matrix(-0.97045 -0.241301 -0.241301 0.97045 137.154 51.7764)" fill="#F4F4F4" stroke="#F4F4F4" stroke-width="17" stroke-linecap="round" stroke-linejoin="round" stroke-dasharray="1 15"/>
<rect width="80" height="68" rx="34" transform="matrix(-0.97045 -0.241301 -0.241301 0.97045 125.51 48.8813)" fill="white" stroke="white" stroke-width="17" stroke-linecap="round" stroke-linejoin="round" stroke-dasharray="1 15"/>
<rect x="74.2852" y="54.2217" width="6" height="6" rx="3" transform="rotate(-108.563 74.2852 54.2217)" fill="#343440"/>
<rect x="94.0918" y="61.4824" width="6" height="6" rx="3" transform="rotate(-108.563 94.0918 61.4824)" fill="#343440"/>
<path d="M89.379 61.9975C88.7867 64.2078 86.6375 65.628 84.372 65.3061V65.3061C82.5416 65.046 81.0535 63.6984 80.6138 61.9027L80.1692 60.0872C79.2644 56.3924 82.6501 53.0792 86.3245 54.0637V54.0637C88.9938 54.779 90.578 57.5227 89.8627 60.1921L89.379 61.9975Z" stroke="#343440" stroke-width="2" stroke-linecap="round" stroke-linejoin="round"/>
<path d="M32.1633 108.234C22.8418 101.375 8.71193 104.526 4.34299 101.375" stroke="#202033" stroke-width="7" stroke-linecap="round"/>
<path d="M75.2268 124.389C60.8424 111.375 46.8418 130.375 43.841 125.876" stroke="#202033" stroke-width="7" stroke-linecap="round"/>
<path d="M151.18 83.5012C141.464 85.7009 130.569 77.8503 117.24 81.2551" stroke="#202033" stroke-width="7" stroke-linecap="round"/>
</svg>
