<svg width="196" height="181" viewBox="0 0 196 181" fill="none" xmlns="http://www.w3.org/2000/svg">
<path d="M49.5247 74.2825C51.6829 60.9562 62.5794 53.0971 66.3262 45.5996" stroke="#202033" stroke-width="7" stroke-linecap="round"/>
<rect width="105" height="92" rx="46" transform="matrix(-0.987139 -0.159865 -0.159865 0.987139 139.199 75.2024)" fill="#F4F4F4" stroke="#F4F4F4" stroke-width="17" stroke-linecap="round" stroke-linejoin="round" stroke-dasharray="1 15"/>
<rect width="80" height="68" rx="34" transform="matrix(-0.987139 -0.159865 -0.159865 0.987139 127.354 73.2842)" fill="white" stroke="white" stroke-width="17" stroke-linecap="round" stroke-linejoin="round" stroke-dasharray="1 15"/>
<rect x="76.75" y="82.8604" width="6" height="6" rx="3" transform="rotate(-113.328 76.75 82.8604)" fill="#343440"/>
<rect x="97.0898" y="88.4512" width="6" height="6" rx="3" transform="rotate(-113.328 97.0898 88.4512)" fill="#343440"/>
<path d="M82.4316 84.751C83.8532 88.2644 89.3389 86.0945 91.4211 87.9339" stroke="#202033" stroke-width="3" stroke-linecap="round"/>
<path d="M101.912 68.7249C103.064 69.2249 104.062 69.7251 104.814 70.2249" stroke="#202033" stroke-width="3" stroke-linecap="round"/>
<path d="M81.9766 62.7246C83.1289 63.2246 84.127 63.7249 84.8789 64.2246" stroke="#202033" stroke-width="3" stroke-linecap="round"/>
<path d="M82.8036 85.7234C82.8042 93.2234 94.304 96.2233 90.802 88.2231" stroke="#202033" stroke-width="3" stroke-linecap="round"/>
<path d="M30.2598 122.231C15.7857 129.09 9.428 134.276 4.8125 131.5" stroke="#202033" stroke-width="7" stroke-linecap="round"/>
<path d="M65.0449 147.413C50.5709 154.271 44.4299 165.276 39.8145 162.5" stroke="#202033" stroke-width="7" stroke-linecap="round"/>
<path d="M98.8128 16.7717C129.313 7.27172 146.812 20.772 160.312 35.2714C166.647 42.0745 170.312 60.2714 181.812 72.7714C162.812 63.7714 150.312 96.7715 138.312 90.2721C142.312 80.7717 146.812 67.7717 119.812 56.7721C61.3125 46.7717 72.3125 45.2721 64.8125 45.2721C70.3125 37.2717 76.3125 23.78 98.8128 16.7717Z" fill="#483EA8"/>
<path d="M98.8128 16.8977C129.313 7.3977 146.812 20.8979 160.312 35.3974C166.647 42.2004 170.312 60.3974 181.812 72.8974C162.812 63.8974 154.312 97.2249 136.812 89.7249C145.312 72.2241 146.312 50.2245 119.312 39.2249C82.9216 24.3994 69.8125 34.2249 64.8125 45.3981C70.3125 37.3977 76.3125 23.906 98.8128 16.8977Z" fill="#5248AE"/>
<path d="M141.812 73.099C122.339 47.1653 93.8123 56.7239 65.8125 45.7249" stroke="#483EA8" stroke-width="3" stroke-linecap="round"/>
<path d="M183.314 74.1005C161.313 61.5989 155.814 97.0991 137.813 89.5995" stroke="#5248AE" stroke-width="3" stroke-linecap="round"/>
<path d="M183.313 74.2249C174.313 67.2249 172.823 50.6021 157.822 32.6017C134.556 4.68278 79.4872 9.15277 65.8124 45.7248" stroke="#5248AE" stroke-width="3" stroke-linecap="round"/>
<path d="M137.313 89.0988C163.314 41.5987 77.3134 13.2252 65.8132 45.7249" stroke="#483EA8" stroke-width="3" stroke-linecap="round"/>
<path d="M128.312 13.7248C147.312 18.2248 153.312 23.5701 163.312 36.3975C173.312 49.2248 173.812 59.7249 185.312 72.2249C187.693 74.6058 186.812 83.7248 175.914 84.2248C165.016 84.7248 149.662 94.3863 139.312 91.7248C198.812 58.2248 144.812 20.2248 126.812 15.7248C108.373 11.1151 86.8125 19.2248 76.8125 27.2249C86.8125 16.7248 109.312 9.22486 128.312 13.7248Z" fill="#483EA8"/>
<path d="M118.313 109.099C124.813 104.098 136.12 93.5033 139.312 88.0974" stroke="#202033" stroke-width="7" stroke-linecap="round"/>
</svg>
