<svg width="132" height="121" viewBox="0 0 132 121" fill="none" xmlns="http://www.w3.org/2000/svg">
<path d="M17.1253 29.2048C17.1253 22.783 16.9072 18.3142 23.6297 17.0214C25.1638 16.7264 26.5584 16.7243 28.1201 16.7243C30.2673 16.7243 29.4909 17.1376 29.3417 16.9884C29.3154 16.9621 32.517 12.7445 32.8415 12.0028C33.1556 11.2849 33.533 10.4045 34.1622 9.88972C35.5866 8.72434 41.8442 6.42731 43.7372 7.9417C46.2442 9.94728 46.9737 7.51639 49.8124 6.15877C52.0112 5.10718 61.1043 3.57064 61.1043 7.80963" stroke="white" stroke-width="9" stroke-linecap="round"/>
<path d="M75.3677 7.21521C77.6306 7.05357 85.6734 5.0687 87.2869 6.95107C88.7809 8.69404 91.2281 10.3493 93.197 11.5075C93.8188 11.8732 93.509 12.7598 93.9234 13.0262C95.8898 14.2904 101.887 13.1583 104.126 13.1583C107.32 13.1583 109.665 12.49 111.753 14.8092C113.11 16.317 112.121 20.6692 112.941 21.0164C118.303 23.2848 120.535 25.7477 120.535 31.2848C120.535 33.2971 118.803 33.6796 120.403 35.2799C122.396 37.2731 124.802 38.906 126.181 41.3881C126.789 42.4821 127.48 46.2 126.61 47.1661C125.508 48.3907 124.16 48.2301 123.243 49.1471C121.121 51.2693 131.312 62.4861 122.913 62.4861" stroke="white" stroke-width="9" stroke-linecap="round"/>
<path d="M8.80484 44.6562C5.55472 44.6562 3.08962 51.788 7.02191 51.788" stroke="white" stroke-width="9" stroke-linecap="round"/>
<path d="M9.39943 67.835C6.75145 70.6387 7.13168 75.3225 8.21081 78.8297C8.97131 81.3013 15.7128 82.7713 14.4181 84.8058C11.4815 89.4204 13.1711 94.3135 16.9934 97.2864C19.2995 99.08 24.6903 102.899 27.8231 102.899C28.4734 102.899 29.606 101.457 29.606 102.107C29.606 104.501 30.8009 106.296 32.5115 107.885C35.3862 110.554 43.9306 111.669 47.6994 110.592C48.7715 110.286 49.7381 109.058 50.8691 108.71C51.5319 108.506 58.2219 115.016 59.7838 115.71C62.6948 117.004 66.7095 115.974 69.821 115.974C72.8026 115.974 74.7111 114.466 77.547 113.597C79.5484 112.984 80.1549 112.069 81.6412 111.22C83.1688 110.347 81.8792 110.427 83.4901 111.286C87.791 113.579 94.1923 114.863 98.2819 111.517C100.496 109.705 100.954 109.639 102.244 107.059C103.534 104.479 104.737 106.513 107.659 107.39C109.131 107.831 111.864 105.593 113.132 104.578C115.156 102.959 117.803 101.704 118.132 98.5781C118.512 94.9659 119.941 96.7048 119.941 93.0271C119.941 91.5718 119.86 90.0893 119.941 88.6358C119.992 87.7246 121.371 88.2237 121.856 87.4472C123.187 85.3183 124.799 83.3908 122.318 80.9098" stroke="white" stroke-width="9" stroke-linecap="round"/>
<path d="M92.2725 70.2861C87.5384 73.6676 81.1149 75.8742 75.308 76.0744C71.3299 76.2116 67.321 75.8378 63.3492 75.8378C62.9087 75.8378 62.629 75.3566 62.2115 75.7741C61.4744 76.5113 60.7372 77.2485 60 77.9857" stroke="#11C06B" stroke-width="9" stroke-linecap="round"/>
<path d="M15 56.4971C17.4091 61.7925 21.8687 66.9152 26.7975 69.9921C30.174 72.0999 33.8327 73.7807 37.2725 75.7666C37.654 75.9869 38.1367 75.7099 38.2895 76.2802C38.5594 77.2873 38.8292 78.2943 39.099 79.3013" stroke="#11C06B" stroke-width="9" stroke-linecap="round"/>
<path d="M41.0057 79.8562C37.2427 75.3739 31.4974 70.325 29.4792 77.82C27.461 85.3151 33.2316 94.2867 33.2316 98.2586C33.2316 98.6991 33.7128 98.9787 33.2953 99.3962C32.5581 100.133 31.8209 100.871 31.0837 101.608" stroke="#11C06B" stroke-width="9" stroke-linecap="round"/>
<path d="M64.3626 84.6296C60.5997 80.1474 54.8543 75.0984 52.8362 82.5935C50.818 90.0885 56.5885 99.0601 56.5885 103.032C56.5885 103.473 57.0697 103.752 56.6522 104.17C55.915 104.907 55.1778 105.644 54.4406 106.381" stroke="#11C06B" stroke-width="9" stroke-linecap="round"/>
<path d="M57.7139 37.5244C58.1494 37.8355 58.6198 38.0776 59.1008 38.3112C59.357 38.4357 59.7271 38.4839 59.901 38.7247C60.2797 39.249 60.6954 39.281 61.2079 39.0247C62.3649 38.4462 63.8546 38.1245 65.1554 38.1245" stroke="white" stroke-width="4" stroke-linecap="round"/>
</svg>
