<svg width="165" height="142" viewBox="0 0 165 142" fill="none" xmlns="http://www.w3.org/2000/svg">
<rect width="105" height="92" rx="46" transform="matrix(-0.965926 0.258819 0.258819 0.965926 112.357 6.66504)" fill="#F4F4F4" stroke="#F4F4F4" stroke-width="17" stroke-linecap="round" stroke-linejoin="round" stroke-dasharray="1 15"/>
<rect width="80" height="68" rx="34" transform="matrix(-0.965926 0.258819 0.258819 0.965926 106.273 9.00049)" fill="white" stroke="white" stroke-width="17" stroke-linecap="round" stroke-linejoin="round" stroke-dasharray="1 15"/>
<rect x="68.3984" y="35.4941" width="6" height="6" rx="3" transform="rotate(-137.527 68.3984 35.4941)" fill="#343440"/>
<rect x="89.2441" y="32.2554" width="6" height="6" rx="3" transform="rotate(-137.527 89.2441 32.2554)" fill="#343440"/>
<path d="M75.4763 32.3449C80.5 34.5 81 34 82.3719 31.3853" stroke="#202033" stroke-width="3" stroke-linecap="round"/>
<path d="M68.4648 106.014C66.1271 114.612 65.5 133.5 61 131.5" stroke="#202033" stroke-width="7" stroke-linecap="round"/>
<path d="M119 85.1437C134.662 88.4603 142 94.6436 149.5 94.6436" stroke="#202033" stroke-width="7" stroke-linecap="round"/>
<path d="M140.412 21.9996C137.414 28.4995 131.912 34.5001 119.912 38.9995" stroke="#202033" stroke-width="7" stroke-linecap="round"/>
<path d="M33.8732 58.5886C21.5742 56.9998 13.5742 55.5 5.57422 50" stroke="#202033" stroke-width="7" stroke-linecap="round"/>
</svg>
