<svg width="353" height="74" viewBox="0 0 353 74" fill="none" xmlns="http://www.w3.org/2000/svg">
<path d="M0.0839844 65.8V49.4H8.28398V65.8H0.0839844ZM65.684 74H57.484V0.199997H65.684V33H73.884V41.2H65.684V74ZM8.28398 33H16.484V49.4H8.28398V33ZM16.484 33V0.199997H24.684V33H16.484ZM24.684 33H32.884V49.4H24.684V33ZM32.884 65.8V49.4H41.084V65.8H32.884ZM82.084 41.2V33H98.484V16.6H139.484V33H155.884V41.2H82.084ZM98.484 57.6V65.8H90.284V57.6H98.484ZM98.484 65.8H139.484V74H98.484V65.8ZM98.484 49.4H139.484V57.6H98.484V49.4ZM98.484 16.6H90.284V8.4H98.484V16.6ZM98.484 8.4V0.199997H139.484V8.4H98.484ZM131.284 33V24.8H106.684V33H131.284ZM147.684 57.6V65.8H139.484V57.6H147.684ZM147.684 16.6H139.484V8.4H147.684V16.6Z" fill="white"/>
<path d="M196.916 65.8V57.6H270.716V65.8H196.916ZM213.316 33V41.2H205.116V33H213.316ZM213.316 24.8H221.516V33H213.316V24.8ZM229.716 16.6V24.8H221.516V16.6H229.716ZM229.716 0.199997H237.916V16.6H229.716V0.199997ZM246.116 33V24.8H254.316V33H246.116ZM246.116 16.6V24.8H237.916V16.6H246.116ZM262.516 33V41.2H254.316V33H262.516ZM278.916 41.2V0.199997H319.916V8.4H287.116V16.6H319.916V24.8H287.116V33H319.916V41.2H278.916ZM352.716 74H344.516V57.6H287.116V49.4H352.716V74ZM352.716 41.2H344.516V24.8H336.316V41.2H328.116V0.199997H336.316V16.6H344.516V0.199997H352.716V41.2Z" fill="#10C06B"/>
</svg>
