<svg width="598" height="681" viewBox="0 0 598 681" fill="none" xmlns="http://www.w3.org/2000/svg">
<path d="M87.1802 291.593C56.6536 291.593 63.82 322.982 75.2894 337.729C77.2135 340.203 72.3616 338.505 69.1062 339.631C57.2815 343.725 54.1775 354.472 53.1726 366.029C52.1174 378.165 49.8402 397.41 53.1726 409.073C58.7302 428.525 31.5315 434.387 31.5315 456.636C31.5315 469.803 41.4707 484.827 52.9348 491.833C65.3529 499.422 58.1122 501.014 48.6541 506.578C33.5821 515.443 38.4775 550.208 49.6054 560.324C53.2319 563.621 76.0425 576.218 75.7651 576.495C67.8793 584.381 43.6048 586.439 40.3306 597.899C34.3262 618.914 22.5276 659.73 57.2155 659.73C74.8791 659.73 35.482 674.357 29.8668 676.853C18.8223 681.762 18.6895 701.201 18.6895 710.861C18.6895 724.486 23.5896 735.903 35.8121 742.014C48.3759 748.296 49.2085 744.9 37.9525 753.905C29.7257 760.487 22.2091 812.783 40.0928 813.835C50.0808 814.422 52.5384 805.59 48.4163 820.018C46.4995 826.727 39.3599 834.79 48.6541 840.47C61.5434 848.347 76.1538 853.88 90.034 856.403C97.0851 857.686 105.652 857.042 112.864 856.641C117.836 856.365 120.987 848.812 123.804 852.836C135.768 869.928 154.021 890.887 177.074 890.887C190.795 890.887 221.924 885.039 230.82 876.142C245.077 861.886 275.524 894.213 285.994 899.448C305.691 909.297 325.409 908.21 346.874 910.387C366.818 912.411 387.133 917.346 407.279 916.571C418.662 916.133 433.929 901.569 440.573 893.027C450.665 880.052 455.741 876.316 466.257 882.325C485.182 893.139 510.199 883.861 519.528 865.203" stroke="black" stroke-width="36" stroke-linecap="round"/>
<path d="M112.863 218.821C117.201 209.604 118.729 201.699 129.986 201.699C144.383 201.699 151.389 204.185 151.389 186.716C151.389 160.549 161.215 117.555 196.099 137.489C212.674 146.96 192.305 147.1 211.319 136.537C238.536 121.417 277.455 126.071 307.396 122.744C324.557 120.837 317.256 133.33 332.129 127.976C346.423 122.83 358.459 116.962 373.984 122.506C385.674 126.681 389.136 158.416 398.004 158.416C417.788 158.416 440.135 149.227 460.549 155.562C468.052 157.891 481.001 165.012 481.001 173.874C481.001 186.408 503.999 188.829 512.868 193.137C549.493 210.926 508.552 220.835 529.04 239.273C539.912 249.059 566.557 284.268 545.211 296.825C530.071 305.73 535.655 303.373 541.882 312.996C548.543 323.291 558.413 329.911 564.474 340.82C571.993 354.354 580.077 367.993 570.895 382.914C564.657 393.05 559.949 392.612 566.852 405.268C576.223 422.448 579.456 424.077 579.456 444.746C579.456 462.353 566.301 473.933 551.632 482.083C540.531 488.25 579.456 542.614 579.456 563.177C579.456 573.782 578.725 582.934 570.657 591.002C567.965 593.694 559.027 594.822 558.291 598.136C555.79 609.392 567.062 618.415 572.322 626.912C579.476 638.468 579.456 648.792 579.456 661.871C579.456 681.044 534.943 664.496 547.589 687.793C556.274 703.791 608.414 760.636 559.004 762.466C547.575 762.89 552.832 773.7 560.193 779.589C564.441 782.987 563.191 801.85 558.053 796.712" stroke="black" stroke-width="36" stroke-linecap="round"/>
<path d="M80.9707 128.6C80.9707 92.8348 76.9638 48.7191 108.795 23.9614C133.779 4.52959 140.9 47.2805 140.9 64.39" stroke="#10C06B" stroke-width="36" stroke-linecap="round"/>
<path d="M467.184 74.1809C469.54 52.9769 491.702 25.1467 511.893 44.2162C529.063 60.4324 539.491 79.8546 531.394 104.146" stroke="#10C06B" stroke-width="36" stroke-linecap="round"/>
<path d="M221.897 279.829C234.491 271.704 235.975 271.269 250.437 271.269C263.499 268.757 265.223 271.269 279.068 271.269C296.208 271.269 313.029 269.855 330.191 269.855C350.329 269.855 372.841 270.46 392.309 276.138C409.369 281.114 426.15 284.792 433.067 303.467C436.461 312.632 439.035 321.414 439.035 331.188C439.035 340.642 440.833 351.954 438.721 361.108C435.861 373.503 430.701 382.47 424.9 393.463C421.248 400.383 416.322 402.736 410.764 407.599C406.766 411.097 397.961 413.438 392.702 414.352C380.808 416.421 369.493 419.758 357.756 422.519C345.738 425.347 334.233 425.347 321.955 425.347H321.553C303.609 425.347 282.323 426.864 264.854 422.205C251.086 418.534 233.168 417.193 221.269 409.012C212.69 403.114 205.923 391.498 201.244 382.312C196.489 372.978 194.203 358.93 192.508 348.519L192.448 348.151C190.295 334.925 191.056 320.254 195.904 307.707C201.177 294.058 209.834 287.612 221.897 279.829Z" fill="white" stroke="white" stroke-width="18" stroke-linecap="round"/>
<path d="M268.927 295.074C268.53 302.63 266.143 309.741 266.143 317.352" stroke="black" stroke-width="25" stroke-linecap="round"/>
<path d="M358.036 292.289C355.476 298.049 352.467 305.425 352.467 311.782" stroke="black" stroke-width="25" stroke-linecap="round"/>
<path d="M298.268 348.832C302.928 354.362 308.99 362.896 312.987 369.643C316.64 375.809 325.66 355.954 329.68 351.713" stroke="black" stroke-width="25" stroke-linecap="round"/>
<path d="M313.194 385.033C313.194 392.897 311.188 408.539 307.625 415.664" stroke="black" stroke-width="25" stroke-linecap="round"/>
</svg>
