<svg width="215" height="181" viewBox="0 0 215 181" fill="none" xmlns="http://www.w3.org/2000/svg">
<path d="M15.2891 159.211C12.2959 158.192 9.97641 155.873 8.77905 152.947V152.947C7.15985 148.989 7.83084 144.467 10.4856 141.115C13.236 137.642 16.99 132.836 20.8287 127.718C34.8287 133.718 42.8287 148.218 54.8287 160.718C47.1082 168.824 24.9777 162.511 15.2891 159.211Z" fill="#D5D4E2"/>
<path d="M15.2891 21.3064C12.2959 22.3257 9.97642 24.6443 8.77905 27.5708V27.5708C7.15985 31.5283 7.83085 36.0506 10.4856 39.4027C13.236 42.8754 16.99 47.6816 20.8287 52.7999C34.8287 46.8 42.8287 32.3 54.8287 19.7999C47.1082 11.6934 24.9777 18.0067 15.2891 21.3064Z" fill="#D5D4E2"/>
<rect x="19.6523" y="161.026" width="141" height="432" rx="70.5" transform="rotate(-90 19.6523 161.026)" fill="white" stroke="white" stroke-width="25" stroke-linecap="round" stroke-linejoin="round" stroke-dasharray="1 15"/>
<rect x="60.1504" y="133.529" width="87" height="55" rx="27.5" transform="rotate(-90 60.1504 133.529)" fill="#D5D4E2"/>
<path d="M102.15 104.529C94.4184 104.529 88.1504 98.2613 88.1504 90.5293V90.5293C88.1504 82.7973 94.4184 76.5293 102.15 76.5293L115.15 76.5293L115.15 104.529L102.15 104.529Z" fill="white"/>
<rect x="69.1504" y="129.529" width="29" height="29" rx="14.5" transform="rotate(-90 69.1504 129.529)" fill="white"/>
<rect x="70.1504" y="79.5293" width="29" height="29" rx="14.5" transform="rotate(-90 70.1504 79.5293)" fill="white"/>
<rect x="76.1504" y="122.529" width="15" height="15" rx="7.5" transform="rotate(-90 76.1504 122.529)" fill="#343440"/>
<rect width="4" height="4" rx="2" transform="matrix(-4.37114e-08 -1 -1 4.37114e-08 88.1504 120.529)" fill="white"/>
<rect x="77.1504" y="72.5293" width="15" height="15" rx="7.5" transform="rotate(-90 77.1504 72.5293)" fill="#343440"/>
<rect width="4" height="4" rx="2" transform="matrix(-4.37114e-08 -1 -1 4.37114e-08 89.1504 70.5293)" fill="white"/>
<line x1="97.672" y1="95.421" x2="100.809" y2="91.5" stroke="#343440" stroke-width="3" stroke-linecap="round"/>
<line x1="1.5" y1="-1.5" x2="6.52129" y2="-1.5" transform="matrix(0.624695 0.780869 0.780869 -0.624695 97.9062 83.749)" stroke="#343440" stroke-width="3" stroke-linecap="round"/>
<line x1="102.65" y1="90.2842" x2="113.65" y2="90.2842" stroke="#343440" stroke-width="3" stroke-linecap="square"/>
</svg>
