<svg width="184" height="275" viewBox="0 0 184 275" fill="none" xmlns="http://www.w3.org/2000/svg">
<path d="M75.6569 16.9706C72.5327 13.8464 72.5327 8.78106 75.6569 5.65687V5.65687C78.781 2.53267 83.8464 2.53267 86.9706 5.65687L102.527 21.2132L91.2132 32.5269L75.6569 16.9706Z" fill="#4542EF"/>
<path d="M107.037 16.9706C110.161 13.8464 110.161 8.78106 107.037 5.65687V5.65687C103.912 2.53267 98.847 2.53267 95.7228 5.65687L80.1664 21.2132L91.4802 32.5269L107.037 16.9706Z" fill="#4542EF"/>
<path d="M11.4713 79.9175C11.2621 76.1865 13.4562 72.822 16.8425 71.2418V71.2418C18.1375 70.6374 19.5372 70.3222 20.9657 70.3654C27.3259 70.5578 46.0732 71.6477 54.3086 77.8242C48.3087 91.8242 33.8087 99.8243 21.3086 111.824C13.896 104.765 11.9656 88.7343 11.4713 79.9175Z" fill="#D5D4E2"/>
<path d="M172.064 78.9175C172.273 75.1865 170.079 71.822 166.693 70.2418V70.2418C165.398 69.6374 163.998 69.3222 162.57 69.3654C156.209 69.5578 137.462 70.6477 129.227 76.8242C135.226 90.8242 149.726 98.8243 162.227 110.824C169.639 103.765 171.57 87.7343 172.064 78.9175Z" fill="#D5D4E2"/>
<path d="M21 128C21 87.1309 54.1309 54 95 54V54C135.869 54 169 87.1309 169 128L169 275H21L21 128Z" fill="white" stroke="white" stroke-width="17" stroke-linecap="round" stroke-linejoin="round" stroke-dasharray="1 15"/>
<rect x="51" y="81" width="88" height="55" rx="27.5" fill="#D5D4E2"/>
<path d="M81 123C81 115.268 87.268 109 95 109V109C102.732 109 109 115.268 109 123V136H81V123Z" fill="white"/>
<rect x="56" y="90" width="29" height="29" rx="14.5" fill="white"/>
<rect x="106" y="91" width="29" height="29" rx="14.5" fill="white"/>
<rect x="65" y="92" width="15" height="15" rx="7.5" fill="#343440"/>
<rect width="4" height="4" rx="2" transform="matrix(1 0 0 -1 67 104)" fill="white"/>
<rect x="111" y="93" width="15" height="15" rx="7.5" fill="#343440"/>
<rect width="4" height="4" rx="2" transform="matrix(1 0 0 -1 113 105)" fill="white"/>
<line x1="90.1083" y1="118.521" x2="94.0293" y2="121.657" stroke="#343440" stroke-width="3" stroke-linecap="round"/>
<line x1="1.5" y1="-1.5" x2="6.52129" y2="-1.5" transform="matrix(-0.780869 0.624695 0.624695 0.780869 101.781 118.755)" stroke="#343440" stroke-width="3" stroke-linecap="round"/>
<line x1="95.2461" y1="123.5" x2="95.2461" y2="134.5" stroke="#343440" stroke-width="3" stroke-linecap="square"/>
</svg>
