<svg width="265" height="257" viewBox="0 0 265 257" fill="none" xmlns="http://www.w3.org/2000/svg">
<path d="M80.1439 67.6729C76.1377 67.6729 77.0782 71.7924 78.5834 73.7277C78.8359 74.0524 78.1992 73.8295 77.7719 73.9774C76.2201 74.5146 75.8127 75.9251 75.6808 77.4418C75.5423 79.0345 75.2435 81.5602 75.6808 83.0909C76.4102 85.6437 72.8406 86.413 72.8406 89.333C72.8406 91.061 74.1451 93.0328 75.6496 93.9522C77.2793 94.9482 76.3291 95.1571 75.0878 95.8873C73.1098 97.0508 73.7522 101.613 75.2127 102.941C75.6886 103.374 78.6822 105.027 78.6458 105.063C77.6109 106.098 74.4251 106.368 73.9954 107.872C73.2074 110.63 71.659 115.987 76.2114 115.987C78.5296 115.987 73.3591 117.907 72.6222 118.234C71.1727 118.878 71.1553 121.429 71.1553 122.697C71.1553 124.485 71.7984 125.984 73.4024 126.786C75.0513 127.61 75.1606 127.165 73.6833 128.346C72.6037 129.21 71.6172 136.073 73.9642 136.211C75.275 136.289 75.5976 135.129 75.0566 137.023C74.805 137.903 73.868 138.962 75.0878 139.707" stroke="black" stroke-width="4" stroke-linecap="round"/>
<path d="M83.5146 58.1228C84.0839 56.9132 84.2845 55.8757 85.7618 55.8757C87.6513 55.8757 88.5708 56.202 88.5708 53.9094C88.5708 50.4752 89.8603 44.8328 94.4384 47.4488C96.6137 48.6918 93.9406 48.7102 96.4359 47.324C100.008 45.3395 105.116 45.9503 109.045 45.5137C111.297 45.2635 110.339 46.9031 112.291 46.2004C114.167 45.525 115.746 44.7549 117.784 45.4825C119.318 46.0304 119.772 50.1953 120.936 50.1953C123.533 50.1953 126.466 48.9894 129.145 49.8208C130.129 50.1264 131.829 51.061 131.829 52.224C131.829 53.8689 134.847 54.1867 136.011 54.7521C140.818 57.0867 135.445 58.3871 138.133 60.807C139.56 62.0912 143.057 66.7121 140.256 68.3599C138.269 69.5287 139.001 69.2193 139.819 70.4823C140.693 71.8334 141.988 72.7021 142.784 74.1339C143.77 75.91 144.831 77.7 143.626 79.6582C142.808 80.9885 142.19 80.931 143.096 82.592C144.326 84.8467 144.75 85.0604 144.75 87.7729C144.75 90.0838 143.023 91.6035 141.098 92.673C139.641 93.4824 144.75 100.617 144.75 103.316C144.75 104.708 144.654 105.909 143.595 106.967C143.242 107.321 142.069 107.469 141.972 107.904C141.644 109.381 143.123 110.565 143.814 111.68C144.752 113.197 144.75 114.552 144.75 116.268C144.75 118.785 138.908 116.613 140.568 119.67C141.707 121.77 148.55 129.23 142.066 129.47C140.566 129.526 141.256 130.945 142.222 131.718C142.779 132.164 142.615 134.639 141.941 133.965" stroke="black" stroke-width="4" stroke-linecap="round"/>
<path d="M79.3284 46.2823C79.3284 41.5885 78.8025 35.7987 82.98 32.5496C86.2589 29.9994 87.1935 35.6099 87.1935 37.8554" stroke="black" stroke-width="4" stroke-linecap="round"/>
<path d="M130.015 39.1404C130.324 36.3576 133.232 32.7052 135.882 35.2079C138.136 37.3361 139.504 39.885 138.442 43.073" stroke="black" stroke-width="4" stroke-linecap="round"/>
<path d="M103.996 68.1299C103.944 69.1215 103.631 70.0547 103.631 71.0536" stroke="black" stroke-width="4" stroke-linecap="round"/>
<path d="M115.69 67.7646C115.354 68.5206 114.959 69.4885 114.959 70.3229" stroke="black" stroke-width="4" stroke-linecap="round"/>
<path d="M107.847 75.1846C108.458 75.9104 109.254 77.0303 109.779 77.9159C110.258 78.725 111.442 76.1193 111.969 75.5627" stroke="black" stroke-width="4" stroke-linecap="round"/>
<path d="M109.806 79.9365C109.806 80.9686 109.542 83.0215 109.075 83.9566" stroke="black" stroke-width="4" stroke-linecap="round"/>
<path d="M149.145 106.428C151.465 104.151 153.867 102.365 157.282 102.307C157.743 102.3 159.259 102.421 159.514 102.904C159.766 103.383 159.403 104.965 159.725 105.205C160.536 105.809 163.526 103.598 164.891 104.072C166.136 104.505 168.838 105.559 166.997 106.775" stroke="black" stroke-width="4" stroke-linecap="round"/>
<path d="M171.846 106.462C173.678 105.482 174.867 104.935 176.855 104.824C177.357 104.796 179.125 104.647 179.347 105.329C179.457 105.667 178.763 106.701 179.124 106.584C180.602 106.103 182.139 105.981 183.655 105.655C184.485 105.476 186.703 105.115 187.465 105.555C187.574 105.618 187.573 106.246 187.609 106.382C187.719 106.791 187.005 107.724 187.42 107.639C188.03 107.513 188.695 106.827 189.352 106.628C190.197 106.372 191.311 106.455 192.188 106.449C193.481 106.44 194.588 106.422 194.968 107.743C195.327 108.991 196.053 111.656 197.535 111.023" stroke="black" stroke-width="4" stroke-linecap="round"/>
<path d="M202.473 113.252C204.091 112.768 204.889 112.578 206.641 113.1C207.672 113.406 209.192 113.627 210.08 114.272C210.482 114.564 210.463 115.44 210.715 115.867C211.089 116.497 212.665 118.271 211.519 118.907C211.17 119.101 212.323 118.912 212.715 118.992C213.624 119.178 214.569 119.627 215.373 120.078C216.763 120.856 217.131 121.097 217.271 122.66C217.323 123.232 217.644 123.925 217.091 124.32C216.623 124.655 221.409 127.269 222.061 127.691C222.835 128.191 222.726 129.183 222.357 130.023C221.737 131.438 221.146 131.826 219.456 132.083C219.103 132.137 220.513 133.576 220.595 133.674C221.49 134.743 222.18 136.018 222.698 137.309C222.989 138.033 222.716 139.051 222.351 139.737C222.014 140.373 221.443 141.406 220.723 141.598C219.642 141.888 221.937 144.059 222.287 144.611C222.927 145.62 223.16 146.434 223.312 147.537C223.489 148.814 222.441 148.746 221.337 149.042" stroke="black" stroke-width="4" stroke-linecap="round"/>
<path d="M219.378 153.513C221.895 156.764 221.786 159.094 219.083 162.23C218.645 162.738 217.915 164.2 217.144 164.24C216.242 164.288 214.473 163.519 213.749 163.802C212.201 164.406 213.852 168.556 211.987 169.788C211.121 170.36 210.083 169.512 209.84 170.571C209.539 171.888 209.95 172.652 208.728 173.577C207.857 174.236 206.313 174.917 205.2 174.566C203.845 174.14 204.49 176.163 203.961 176.981C203.166 178.211 201.672 178.809 200.411 179.357C199.204 179.881 198.873 179.619 197.788 179.347C197.549 179.288 196.72 181.522 196.235 181.857C195.209 182.566 193.973 182.854 192.768 182.501C191.983 182.271 191.062 181.685 190.244 181.752C189.823 181.787 189 181.639 188.603 181.48C187.846 181.175 187.676 182.547 187.284 183.225C186.279 184.966 183.215 184.3 181.833 183.502" stroke="black" stroke-width="4" stroke-linecap="round"/>
<path d="M77.9507 147.802C78.2207 149.575 77.257 151.722 77.2564 153.556C77.2557 155.699 78.7928 156.691 80.5107 157.683C80.772 157.834 80.8822 157.818 81.0276 157.567C81.3553 156.999 80.4182 158.729 80.1635 159.333C79.5998 160.669 78.7759 162.048 79.4782 163.485C80.0785 164.712 81.9841 166.895 83.2908 167.363C84.018 167.623 84.1776 167.072 84.6743 167.003C84.7113 166.998 85.2022 171.066 85.2885 171.3C85.6778 172.359 86.9605 175.204 88.1663 174.881C89.27 174.585 90.6639 175.898 91.6877 175.341C92.0134 175.163 93.1775 174.519 93.3325 175.097C93.9089 177.248 94.6777 181.299 97.6589 180.811C98.4806 180.677 99.4109 181.032 100.215 180.817C101.014 180.603 100.695 181.786 101.471 182.234C102.522 182.841 104.054 183.888 105.267 184.045C106.404 184.193 107.608 184.231 108.712 184.547" stroke="black" stroke-width="4" stroke-linecap="round"/>
<path d="M127.668 184.598C130.269 186.1 132.44 186.51 135.314 185.192C136.309 184.735 136.997 183.031 137.812 183.919C139.059 185.278 140.374 186.522 142.255 186.017C143.32 185.732 144.434 185.826 145.513 185.616C146.571 185.41 146.712 184.798 147.359 184.036C148.558 182.622 149.266 184.033 150.61 185.083C152.732 186.742 154.416 187.562 156.906 188.165C157.737 188.366 159.19 187.166 159.126 186.386C159.024 185.152 159.022 183.738 158.334 182.696" stroke="black" stroke-width="4" stroke-linecap="round"/>
<path d="M102.943 187.516C103.013 190.442 102.062 193.773 103.105 196.553C103.429 197.416 103.875 198.374 104.716 198.828C105.317 199.152 106.216 199.456 106.875 199.166C107.273 198.991 105.984 200.163 105.869 200.267C103.737 202.201 104.618 205.14 106.674 206.85C107.734 207.732 108.867 208.678 110.072 209.35C110.201 209.422 110.636 209.321 110.513 209.403C109.876 209.823 109.221 210.406 108.772 211.02C107.2 213.17 107.473 216.485 109.578 218.243C111.53 219.873 113.085 220.131 115.347 219.489C116.831 219.068 117.24 218.097 118.251 219.35C119.342 220.704 120.929 221.227 122.186 219.958C122.988 219.15 124.022 218.614 124.604 217.605C124.991 216.935 125.37 216.294 125.86 215.692C126.533 214.865 126.418 213.997 126.855 213.24C127.334 212.41 128.351 211.91 128.925 211.14C130.165 209.477 131.205 207.168 131.055 205.092C130.968 203.881 130.001 201.445 130.607 200.395C131.505 198.839 132.881 196.886 132.265 194.931C132.039 194.211 131.936 193.665 131.244 193.265C130.921 193.079 131.81 192.103 131.462 191.576" stroke="black" stroke-width="4" stroke-linecap="round"/>
<path d="M133.472 214.824C134.104 216.728 135.89 216.002 137.15 215.267C137.617 214.995 138.458 213.678 138.381 214.212C138.27 214.984 139.052 215.7 139.508 216.191C140.887 217.674 141.667 217.305 143.136 216.167C144.83 214.856 147.284 212.47 147.022 210.107C146.887 208.887 147.072 209.394 148.249 209.437C149.323 209.476 149.663 208.792 150.144 207.959C150.892 206.664 151.285 205.506 151.659 204.026C151.847 203.281 152.736 200.868 152.296 200.04C151.42 198.393 153.299 198.658 153.143 197.234C152.996 195.893 152.799 194.046 152.877 192.744" stroke="black" stroke-width="4" stroke-linecap="round"/>
<path d="M155.972 205.727C155.664 206.43 156.348 208.026 156.655 208.677C157.618 210.712 158.775 213.61 160.759 214.846C161.247 215.149 162.912 215.63 162.81 215.895C162.289 217.242 162.837 218.856 163.553 220.022C165.29 222.851 168.864 223.687 171.775 222.786C172.825 222.461 173.905 221.931 174.254 220.821C174.475 220.119 174.519 219.449 174.563 218.714C174.589 218.29 174.628 217.864 174.627 217.439C174.626 217.383 174.552 216.757 174.588 216.778C177.719 218.586 180.893 214.411 181.338 211.783C181.711 209.586 180.948 206.943 180.631 204.768C180.466 203.635 180.841 204.128 181.393 203.594C182.251 202.763 182.569 200.084 182.719 198.997C182.956 197.27 183.357 195.557 183.253 193.792C183.237 193.523 182.674 191.45 182.812 191.352C183.347 190.975 184.222 190.822 184.868 190.791C185.643 190.754 185.847 190.359 185.458 189.77" stroke="black" stroke-width="4" stroke-linecap="round"/>
<path d="M185.885 217.854C187.734 218.921 190.883 218.569 192.856 217.979C194.318 217.542 194.971 213.064 195.588 213.101C196.642 213.165 197.74 213.383 198.797 213.222C200.187 213.01 201.083 211.05 201.608 209.954C202.477 208.14 202.885 205.952 202.986 203.958C203.028 203.107 203.132 201.494 202.736 200.721C202.449 200.16 203.566 199.357 203.913 198.946C205.015 197.637 204.989 196.058 205.007 194.4C205.018 193.416 204.806 192.448 204.774 191.542C204.742 190.608 203.772 190.97 204.5 189.804C205.318 188.495 205.99 187.629 205.642 185.992C205.466 185.161 204.457 184.228 204.5 183.517" stroke="black" stroke-width="4" stroke-linecap="round"/>
</svg>
