<svg width="132" height="146" viewBox="0 0 132 146" fill="none" xmlns="http://www.w3.org/2000/svg">
<path d="M98.5439 49.7915C112.374 32.5878 113.47 32.364 109.597 29.0471" stroke="#68677A" stroke-width="7" stroke-linecap="round"/>
<path d="M71.1814 5.39111C81.8539 3.77989 48.5392 29.2659 59.5379 35.7102" stroke="#68677A" stroke-width="7" stroke-linecap="round"/>
<path d="M102.539 91.9551C124.382 88.7743 125.337 89.3563 124.76 84.2901" stroke="#68677A" stroke-width="7" stroke-linecap="round"/>
<rect width="105" height="92" rx="46" transform="matrix(-0.0837961 0.996483 0.996483 0.0837961 13.5615 28.2759)" fill="#F4F4F4" stroke="#F4F4F4" stroke-width="17" stroke-linecap="round" stroke-linejoin="round" stroke-dasharray="1 15"/>
<rect width="97.3032" height="92" rx="46" transform="matrix(-0.0837961 0.996483 0.996483 0.0837961 13.5625 35.8911)" fill="white" stroke="white" stroke-width="17" stroke-linecap="round" stroke-linejoin="round" stroke-dasharray="1 15"/>
<path d="M67.3047 67.9517C68.9651 67.5547 68.718 64.5234 67.2136 64.5498" stroke="#202033" stroke-width="3" stroke-linecap="round"/>
<path d="M65.0459 57.7563C66.2927 55.7993 65.7927 52.2993 64.5413 51.358" stroke="#202033" stroke-width="3" stroke-linecap="round"/>
<path d="M63.0459 78.7563C64.2927 76.7993 63.7927 73.2993 62.5413 72.358" stroke="#202033" stroke-width="3" stroke-linecap="round"/>
<path d="M92.0818 89.5073C82.5818 106.507 78.0818 98.5073 70.6826 113.725" stroke="#202033" stroke-width="7" stroke-linecap="round"/>
</svg>
