<svg width="135" height="121" viewBox="0 0 135 121" fill="none" xmlns="http://www.w3.org/2000/svg">
<path d="M117.906 89.7932C122.793 83.8557 117.771 79.1348 118.936 74.7881" stroke="#202033" stroke-width="7" stroke-linecap="round"/>
<rect width="105" height="92" rx="46" transform="matrix(-0.965926 -0.258819 -0.258819 0.965926 125.233 29.21)" fill="#F4F4F4" stroke="#F4F4F4" stroke-width="17" stroke-linecap="round" stroke-linejoin="round" stroke-dasharray="1 15"/>
<rect width="97" height="82" rx="41" transform="matrix(-0.965926 -0.258819 -0.258819 0.965926 126.243 27.3008)" fill="white" stroke="white" stroke-width="17" stroke-linecap="round" stroke-linejoin="round" stroke-dasharray="1 15"/>
<path d="M85.2265 39.4651C79.2266 34.4653 85.2269 34.4646 75.7265 38.4652" stroke="#202033" stroke-width="3" stroke-linecap="round"/>
<path d="M76.94 37.9312C69.318 64.4991 86.2618 38.7766 84 39" stroke="#202033" stroke-width="3" stroke-linecap="round"/>
<path d="M56.4473 73.2914C66.4473 85.2915 76.7647 94.5536 103.138 98.5146" stroke="#202033" stroke-width="7" stroke-linecap="round"/>
<rect x="68.1094" y="40.2847" width="6" height="6" rx="3" transform="rotate(-120 68.1094 40.2847)" fill="#343440"/>
<rect x="89.1973" y="40.811" width="6" height="6" rx="3" transform="rotate(-120 89.1973 40.811)" fill="#343440"/>
<path d="M96.0067 86.4C118.405 74.2845 91.7646 108.275 96.0072 111.103" stroke="#202033" stroke-width="7" stroke-linecap="round"/>
<path d="M80.4248 82.2251C102.823 70.1096 79.6304 105.775 83.873 108.603" stroke="#202033" stroke-width="7" stroke-linecap="round"/>
<path d="M96.4353 73.7879C95.4348 80.7876 112.435 94.7895 117.936 89.2876" stroke="#202033" stroke-width="7" stroke-linecap="round"/>
</svg>
