<svg width="128" height="128" viewBox="0 0 128 128" fill="none" xmlns="http://www.w3.org/2000/svg">
<g clip-path="url(#clip0_748_629)">
<g clip-path="url(#clip1_748_629)">
<path d="M64 9C33.6242 9 9 33.6242 9 64C9 94.3758 33.6242 119 64 119C94.3758 119 119 94.3758 119 64C119 33.6242 94.3758 9 64 9ZM40.205 54.8813C38.3293 54.8817 36.4957 54.326 34.9359 53.2843C33.3761 52.2425 32.1603 50.7617 31.4421 49.0289C30.724 47.2962 30.5359 45.3894 30.9015 43.5497C31.2672 41.71 32.1701 40.0201 33.4963 38.6936C34.8224 37.3671 36.5121 36.4637 38.3517 36.0976C40.1913 35.7315 42.0981 35.9192 43.831 36.6369C45.564 37.3545 47.0452 38.57 48.0873 40.1295C49.1294 41.6891 49.6856 43.5226 49.6856 45.3983C49.685 47.9127 48.686 50.324 46.9083 52.1022C45.1305 53.8804 42.7195 54.88 40.205 54.8813ZM64 102.464C62.1249 102.464 60.2919 101.908 58.7329 100.866C57.1738 99.8245 55.9586 98.3439 55.2411 96.6115C54.5235 94.8792 54.3357 92.9729 54.7016 91.1339C55.0674 89.2948 55.9703 87.6055 57.2962 86.2796C58.6221 84.9538 60.3114 84.0508 62.1504 83.685C63.9895 83.3192 65.8957 83.5069 67.6281 84.2245C69.3604 84.9421 70.8411 86.1572 71.8828 87.7163C72.9246 89.2754 73.4806 91.1084 73.4806 92.9834C73.4806 95.4979 72.4818 97.9093 70.7038 99.6872C68.9258 101.465 66.5144 102.464 64 102.464V102.464ZM64 78.6691C62.1249 78.6691 60.2919 78.113 58.7329 77.0713C57.1738 76.0295 55.9586 74.5489 55.2411 72.8165C54.5235 71.0842 54.3357 69.1779 54.7016 67.3389C55.0674 65.4998 55.9703 63.8105 57.2962 62.4846C58.6221 61.1588 60.3114 60.2558 62.1504 59.89C63.9895 59.5242 65.8957 59.7119 67.6281 60.4295C69.3604 61.1471 70.8411 62.3622 71.8828 63.9213C72.9246 65.4804 73.4806 67.3134 73.4806 69.1885C73.4816 70.4341 73.237 71.6677 72.761 72.8187C72.285 73.9698 71.5868 75.0158 70.7063 75.8969C69.8259 76.778 68.7804 77.477 67.6297 77.9539C66.479 78.4308 65.2456 78.6762 64 78.6762V78.6691ZM64 54.8741C62.1243 54.8745 60.2907 54.3188 58.7309 53.2771C57.1711 52.2353 55.9552 50.7545 55.2371 49.0217C54.519 47.289 54.3309 45.3822 54.6965 43.5425C55.0622 41.7028 55.9651 40.0129 57.2913 38.6864C58.6174 37.36 60.3071 36.4565 62.1467 36.0904C63.9863 35.7244 65.8931 35.912 67.626 36.6297C69.359 37.3474 70.8402 38.5628 71.8823 40.1223C72.9244 41.6819 73.4806 43.5154 73.4806 45.3911C73.4816 46.6368 73.237 47.8705 72.7611 49.0217C72.2851 50.1729 71.5869 51.2191 70.7065 52.1004C69.8261 52.9817 68.7806 53.6809 67.6299 54.158C66.4792 54.6352 65.2457 54.8809 64 54.8813V54.8741ZM87.795 54.8741C85.9194 54.8741 84.086 54.3179 82.5265 53.2759C80.967 52.2339 79.7516 50.7528 79.0338 49.0201C78.3161 47.2873 78.1283 45.3805 78.4942 43.541C78.8601 41.7015 79.7633 40.0118 81.0895 38.6856C82.4157 37.3593 84.1054 36.4562 85.9449 36.0903C87.7845 35.7244 89.6912 35.9122 91.424 36.6299C93.1568 37.3477 94.6378 38.5631 95.6798 40.1226C96.7218 41.6821 97.278 43.5155 97.278 45.3911C97.2789 46.637 97.0344 47.8709 96.5582 49.0223C96.0821 50.1736 95.3837 51.2199 94.503 52.1012C93.6224 52.9826 92.5766 53.6817 91.4256 54.1587C90.2746 54.6357 89.0409 54.8813 87.795 54.8813V54.8741Z" fill="black"/>
</g>
</g>
<defs>
<clipPath id="clip0_748_629">
<rect width="128" height="128" fill="white"/>
</clipPath>
<clipPath id="clip1_748_629">
<rect width="110" height="110" fill="white" transform="translate(9 9)"/>
</clipPath>
</defs>
</svg>
