<svg width="263" height="189" viewBox="0 0 263 189" fill="none" xmlns="http://www.w3.org/2000/svg">
<path d="M91.7783 161.886C91.7783 171.604 101.771 169.322 106.465 165.671C107.253 165.059 106.712 166.603 107.071 167.64C108.374 171.404 111.796 172.392 115.475 172.712C119.338 173.048 125.465 173.773 129.178 172.712C135.37 170.943 137.236 179.601 144.319 179.601C148.51 179.601 153.293 176.437 155.524 172.788C157.939 168.834 158.446 171.139 160.217 174.15C163.04 178.948 174.107 177.39 177.327 173.848C178.377 172.693 182.387 165.431 182.475 165.52C184.986 168.03 185.641 175.758 189.289 176.8C195.979 178.712 208.973 182.468 208.973 171.425C208.973 165.802 213.629 178.344 214.424 180.131C215.986 183.647 222.175 183.689 225.25 183.689C229.587 183.689 233.222 182.13 235.167 178.239C237.167 174.239 236.086 173.974 238.953 177.557C241.048 180.176 257.696 182.569 258.031 176.876C258.218 173.696 255.406 172.914 259.999 174.226C262.135 174.836 264.702 177.109 266.51 174.15C269.018 170.047 270.779 165.396 271.582 160.977C271.991 158.733 271.786 156.006 271.658 153.709C271.57 152.127 269.166 151.124 270.447 150.227C275.888 146.418 282.56 140.607 282.56 133.269C282.56 128.901 280.698 118.991 277.866 116.159C273.328 111.62 283.619 101.928 285.285 98.5948C288.421 92.3241 288.075 86.0472 288.768 79.2138C289.412 72.8647 290.983 66.3976 290.736 59.9842C290.597 56.3605 285.961 51.5003 283.241 49.3852C279.111 46.1725 277.921 44.5568 279.834 41.2089C283.277 35.1843 280.323 27.2204 274.384 24.2505" stroke="white" stroke-width="9" stroke-linecap="round"/>
<path d="M68.6119 153.71C65.6778 152.329 63.161 151.843 63.161 148.259C63.161 143.676 63.9526 141.445 58.3915 141.445C50.0612 141.445 36.3745 138.317 42.7201 127.213C45.7354 121.936 45.7799 128.42 42.4173 122.367C37.6037 113.703 39.0853 101.313 38.0263 91.7816C37.4193 86.3185 41.3963 88.6429 39.6918 83.9081C38.0537 79.3577 36.1855 75.526 37.9506 70.5837C39.2796 66.8623 49.3823 65.7603 49.3823 62.9373C49.3823 56.6389 46.4571 49.5248 48.4738 43.0263C49.2151 40.6377 51.4822 36.5155 54.3033 36.5155C58.2933 36.5155 59.0641 29.1944 60.4355 26.3708C66.0986 14.7116 69.2529 27.7447 75.1227 21.2227C78.2378 17.7615 89.4466 9.27938 93.4438 16.0746C96.2789 20.8944 95.5283 19.1169 98.5919 17.1345C101.869 15.0139 103.977 11.8718 107.45 9.94236C111.758 7.54889 116.1 4.97524 120.85 7.89828C124.077 9.88402 123.937 11.3829 127.966 9.1853C133.435 6.20214 133.954 5.17283 140.534 5.17283C146.139 5.17283 149.825 9.36067 152.42 14.0305C154.383 17.5645 171.69 5.17283 178.236 5.17283C181.612 5.17283 184.525 5.40561 187.093 7.97398C187.95 8.83104 188.31 11.6763 189.365 11.9107C192.948 12.707 195.82 9.11847 198.525 7.44404C202.204 5.16663 205.491 5.17283 209.654 5.17283C215.758 5.17283 210.49 19.3435 217.906 15.3176C222.999 12.5528 241.096 -4.04561 241.678 11.6836C241.813 15.3219 245.254 13.6485 247.129 11.3051C248.211 9.95286 254.216 10.3508 252.58 11.9865" stroke="white" stroke-width="9" stroke-linecap="round"/>
<path d="M39.8905 163.862C28.5049 163.862 14.4609 165.138 6.57943 155.005C0.393431 147.051 14.0029 144.784 19.4496 144.784" stroke="#10C06B" stroke-width="9" stroke-linecap="round"/>
<path d="M22.5665 40.9141C15.8163 40.164 6.95673 33.1089 13.0274 26.6811C18.1897 21.2151 24.3727 17.8955 32.1056 20.4732" stroke="#10C06B" stroke-width="9" stroke-linecap="round"/>
<path d="M88.0334 119C85.4468 114.99 85.3084 114.518 85.3084 109.914C84.5087 105.756 85.3084 105.207 85.3084 100.8C85.3084 95.3431 84.8584 89.9884 84.8584 84.5248C84.8584 78.114 85.0507 70.9476 86.8584 64.7499C88.4424 59.3192 89.6134 53.9768 95.5583 51.775C98.4761 50.6944 101.272 49.875 104.383 49.875C107.393 49.875 110.994 49.3026 113.908 49.975C117.854 50.8856 120.709 52.5281 124.208 54.375C126.411 55.5376 127.16 57.1057 128.708 58.875C129.822 60.1476 130.567 62.9508 130.858 64.6249C131.517 68.4115 132.579 72.0132 133.458 75.7499C134.358 79.5757 134.358 83.2382 134.358 87.1468L134.358 87.2748C134.358 92.987 134.841 99.7635 133.358 105.325C132.189 109.708 131.762 115.411 129.158 119.2C127.28 121.931 123.582 124.085 120.658 125.574C117.687 127.088 113.215 127.816 109.9 128.355L109.783 128.374C105.573 129.06 100.902 128.818 96.9083 127.274C92.563 125.596 90.5111 122.84 88.0334 119Z" fill="white" stroke="white" stroke-width="18" stroke-linecap="round"/>
<path d="M92.8867 104.028C95.292 104.154 97.5557 104.914 99.9786 104.914" stroke="black" stroke-width="9" stroke-linecap="round"/>
<path d="M92 75.6606C93.8338 76.4756 96.1816 77.4336 98.2054 77.4336" stroke="black" stroke-width="9" stroke-linecap="round"/>
<path d="M110 94.6865C111.761 93.203 114.477 91.2731 116.625 90.0005C118.588 88.8377 112.267 85.9663 110.917 84.6865" stroke="black" stroke-width="9" stroke-linecap="round"/>
<path d="M121.524 89.935C124.028 89.935 129.008 90.5739 131.276 91.708" stroke="black" stroke-width="9" stroke-linecap="round"/>
</svg>
