<svg width="148" height="163" viewBox="0 0 148 163" fill="none" xmlns="http://www.w3.org/2000/svg">
<path d="M56.7845 37.6048C58.9426 24.2784 69.8392 16.4193 73.5859 8.92187" stroke="#202033" stroke-width="7" stroke-linecap="round"/>
<path d="M143.113 46.1199C137.162 54.1095 124.419 50.9721 116.508 62.2266" stroke="#202033" stroke-width="7" stroke-linecap="round"/>
<rect width="105" height="92" rx="46" transform="matrix(-0.987139 -0.159865 -0.159865 0.987139 128.711 44.1855)" fill="#F4F4F4" stroke="#F4F4F4" stroke-width="17" stroke-linecap="round" stroke-linejoin="round" stroke-dasharray="1 15"/>
<rect width="80" height="68" rx="34" transform="matrix(-0.987139 -0.159865 -0.159865 0.987139 116.867 42.2671)" fill="white" stroke="white" stroke-width="17" stroke-linecap="round" stroke-linejoin="round" stroke-dasharray="1 15"/>
<rect x="66.2637" y="51.8433" width="6" height="6" rx="3" transform="rotate(-113.328 66.2637 51.8433)" fill="#343440"/>
<rect x="86.6035" y="57.4346" width="6" height="6" rx="3" transform="rotate(-113.328 86.6035 57.4346)" fill="#343440"/>
<path d="M71.9551 53.7363C74.1736 54.7762 78.6322 55.7939 81.0192 56.6873" stroke="#202033" stroke-width="3" stroke-linecap="round"/>
<path d="M81.2648 58.7908C80.437 57.6435 81.2522 55.7496 82.8123 55.4962" stroke="#202033" stroke-width="3" stroke-linecap="round"/>
<path d="M22.125 109.292C7.65096 116.15 8.29386 130.946 3.67837 128.17" stroke="#202033" stroke-width="7" stroke-linecap="round"/>
<path d="M65.2677 126.107C50.7937 132.966 57.6089 153.431 52.9934 150.655" stroke="#202033" stroke-width="7" stroke-linecap="round"/>
</svg>
