<svg width="719" height="598" viewBox="0 0 719 598" fill="none" xmlns="http://www.w3.org/2000/svg">
<path d="M252.594 510.82C252.594 541.346 283.983 534.18 298.73 522.711C301.204 520.787 299.506 525.638 300.632 528.894C304.726 540.719 315.473 543.822 327.03 544.827C339.166 545.883 358.411 548.16 370.074 544.827C389.526 539.27 395.388 566.469 417.637 566.469C430.804 566.469 445.828 556.529 452.834 545.065C460.423 532.647 462.015 539.888 467.579 549.346C476.444 564.418 511.208 559.522 521.325 548.395C524.622 544.768 537.219 521.958 537.496 522.235C545.382 530.121 547.44 554.395 558.9 557.669C579.915 563.674 620.731 575.472 620.731 540.784C620.731 523.121 635.358 562.518 637.854 568.133C642.763 579.178 662.202 579.311 671.862 579.311C685.487 579.311 696.904 574.41 703.015 562.188C709.297 549.624 705.901 548.791 714.906 560.048C721.488 568.274 773.784 575.791 774.836 557.907C775.423 547.919 766.591 545.462 781.019 549.584C787.728 551.5 795.791 558.64 801.471 549.346C809.348 536.457 814.881 521.846 817.404 507.966C818.686 500.915 818.043 492.348 817.642 485.136C817.366 480.164 809.813 477.013 813.837 474.196C830.929 462.232 851.888 443.979 851.888 420.926C851.888 407.205 846.04 376.076 837.143 367.18C822.887 352.923 855.214 322.476 860.449 312.006C870.298 292.309 869.211 272.591 871.388 251.126C873.412 231.181 878.346 210.867 877.572 190.721C877.134 179.338 862.57 164.071 854.028 157.427C841.053 147.335 837.317 142.259 843.326 131.743C854.14 112.818 844.862 87.8012 826.204 78.472" stroke="white" stroke-width="36" stroke-linecap="round"/>
<path d="M179.821 485.137C170.604 480.799 162.699 479.271 162.699 468.014C162.699 453.617 165.185 446.611 147.716 446.611C121.549 446.611 78.5552 436.785 98.4885 401.901C107.96 385.326 108.1 405.695 97.5373 386.681C82.4165 359.464 87.0707 320.545 83.744 290.604C81.8372 273.443 94.3302 280.744 88.9759 265.871C83.8301 251.577 77.9615 239.541 83.5062 224.016C87.6811 212.326 119.416 208.864 119.416 199.996C119.416 180.212 110.227 157.865 116.562 137.451C118.891 129.948 126.012 116.999 134.874 116.999C147.408 116.999 149.829 94.0014 154.137 85.1318C171.926 48.5072 181.835 89.4476 200.273 68.9604C210.059 58.0878 245.268 31.4433 257.825 52.789C266.73 67.9289 264.373 62.3453 273.996 56.1184C284.291 49.4568 290.911 39.5867 301.82 33.5259C315.354 26.0074 328.993 17.9229 343.914 27.1049C354.05 33.3426 353.612 38.051 366.268 31.1478C383.448 21.7769 385.077 18.5436 405.746 18.5436C423.353 18.5436 434.933 31.6987 443.083 46.3679C449.25 57.4689 503.614 18.5436 524.177 18.5436C534.782 18.5436 543.934 19.2748 552.002 27.3427C554.694 30.035 555.822 38.9727 559.136 39.7091C570.392 42.2104 579.415 30.9378 587.912 25.678C599.468 18.5241 609.792 18.5436 622.871 18.5436C642.044 18.5436 625.496 63.0574 648.793 50.4108C664.791 41.726 721.636 -10.4139 723.466 38.9957C723.89 50.4246 734.7 45.1678 740.589 37.8066C743.987 33.5589 762.85 34.8089 757.712 39.9469" stroke="white" stroke-width="36" stroke-linecap="round"/>
<path d="M128.6 517.029C92.8348 517.029 48.7191 521.036 23.9614 489.205C4.52959 464.221 47.2805 457.1 64.39 457.1" stroke="#10C06B" stroke-width="36" stroke-linecap="round"/>
<path d="M74.1809 130.816C52.9769 128.46 25.1467 106.298 44.2162 86.1072C60.4324 68.937 79.8546 58.5093 104.146 66.6063" stroke="#10C06B" stroke-width="36" stroke-linecap="round"/>
<path d="M240.829 376.103C232.704 363.509 232.269 362.025 232.269 347.563C229.757 334.501 232.269 332.777 232.269 318.932C232.269 301.792 230.855 284.971 230.855 267.809C230.855 247.671 231.46 225.159 237.138 205.691C242.114 188.631 245.792 171.85 264.467 164.933C273.632 161.539 282.414 158.965 292.188 158.965C301.642 158.965 312.954 157.167 322.108 159.279C334.503 162.139 343.47 167.299 354.463 173.1C361.383 176.752 363.736 181.678 368.599 187.236C372.097 191.234 374.438 200.039 375.352 205.298C377.421 217.192 380.758 228.507 383.519 240.244C386.347 252.262 386.347 263.767 386.347 276.045L386.347 276.447C386.347 294.391 387.864 315.677 383.205 333.146C379.534 346.914 378.193 364.832 370.012 376.731C364.114 385.31 352.498 392.077 343.312 396.756C333.978 401.511 319.93 403.797 309.519 405.492L309.151 405.552C295.925 407.705 281.254 406.944 268.707 402.096C255.058 396.823 248.612 388.166 240.829 376.103Z" fill="black" stroke="black" stroke-width="18" stroke-linecap="round"/>
<path d="M179.785 329.073C187.341 329.47 194.451 331.857 202.063 331.857" stroke="white" stroke-width="25" stroke-linecap="round"/>
<path d="M177 239.964C182.76 242.524 190.135 245.533 196.493 245.533" stroke="white" stroke-width="25" stroke-linecap="round"/>
<path d="M233.543 299.732C239.074 295.072 247.607 289.01 254.355 285.013C260.52 281.36 240.665 272.34 236.425 268.32" stroke="white" stroke-width="25" stroke-linecap="round"/>
<path d="M269.742 284.806C277.606 284.806 293.249 286.812 300.374 290.375" stroke="white" stroke-width="25" stroke-linecap="round"/>
</svg>
