<svg width="184" height="230" viewBox="0 0 184 230" fill="none" xmlns="http://www.w3.org/2000/svg">
<path d="M172.064 204.082C172.273 207.814 170.079 211.178 166.693 212.758V212.758C165.398 213.363 163.998 213.678 162.569 213.635C156.209 213.442 137.462 212.352 129.227 206.176C135.226 192.176 149.726 184.176 162.227 172.176C169.639 179.235 171.57 195.266 172.064 204.082Z" fill="#D5D4E2"/>
<path d="M11.4713 205.082C11.2621 208.814 13.4562 212.178 16.8425 213.758V213.758C18.1375 214.363 19.5372 214.678 20.9657 214.635C27.3259 214.442 46.0732 213.352 54.3086 207.176C48.3087 193.176 33.8087 185.176 21.3086 173.176C13.896 180.235 11.9656 196.266 11.4713 205.082Z" fill="#D5D4E2"/>
<path d="M162.535 145C162.535 185.869 129.404 219 88.5352 219V219C47.6661 219 14.5352 185.869 14.5352 145L14.5352 -2.00001L162.535 -2L162.535 145Z" fill="white" stroke="white" stroke-width="17" stroke-linecap="round" stroke-linejoin="round" stroke-dasharray="1 15"/>
<rect x="132.535" y="167" width="88" height="55" rx="27.5" transform="rotate(-180 132.535 167)" fill="#D5D4E2"/>
<rect x="131.535" y="167" width="87" height="55" rx="27.5" transform="rotate(-180 131.535 167)" fill="#D5D4E2"/>
<path d="M102.535 125C102.535 132.732 96.2671 139 88.5352 139V139C80.8032 139 74.5352 132.732 74.5352 125L74.5352 112L102.535 112L102.535 125Z" fill="white"/>
<rect x="127.535" y="158" width="29" height="29" rx="14.5" transform="rotate(-180 127.535 158)" fill="white"/>
<rect x="77.5352" y="157" width="29" height="29" rx="14.5" transform="rotate(-180 77.5352 157)" fill="white"/>
<rect x="120.535" y="151" width="15" height="15" rx="7.5" transform="rotate(-180 120.535 151)" fill="#343440"/>
<rect width="4" height="4" rx="2" transform="matrix(-1 -8.74228e-08 -8.74228e-08 1 118.535 139)" fill="white"/>
<rect x="70.5352" y="150" width="15" height="15" rx="7.5" transform="rotate(-180 70.5352 150)" fill="#343440"/>
<rect width="4" height="4" rx="2" transform="matrix(-1 -8.74228e-08 -8.74228e-08 1 68.5352 138)" fill="white"/>
<line x1="93.4268" y1="129.479" x2="89.5058" y2="126.343" stroke="#343440" stroke-width="3" stroke-linecap="round"/>
<line x1="1.5" y1="-1.5" x2="6.52129" y2="-1.5" transform="matrix(0.780869 -0.624695 -0.624695 -0.780869 81.7559 129.245)" stroke="#343440" stroke-width="3" stroke-linecap="round"/>
<line x1="88.291" y1="124.5" x2="88.291" y2="113.5" stroke="#343440" stroke-width="3" stroke-linecap="square"/>
</svg>
