<svg width="128" height="128" viewBox="0 0 128 128" fill="none" xmlns="http://www.w3.org/2000/svg">
<path fill-rule="evenodd" clip-rule="evenodd" d="M64.0005 9.67188C33.2618 9.67188 8.33594 34.5932 8.33594 65.3364C8.33594 89.9304 24.2855 110.796 46.4027 118.156C49.1847 118.672 50.206 116.949 50.206 115.479C50.206 114.151 50.1544 109.766 50.1304 105.115C34.6445 108.482 31.3768 98.5473 31.3768 98.5473C28.8446 92.1132 25.1962 90.4024 25.1962 90.4024C20.1458 86.9476 25.5769 87.0185 25.5769 87.0185C31.1666 87.4112 34.1099 92.7548 34.1099 92.7548C39.0746 101.265 47.1319 98.8044 50.3083 97.3821C50.8079 93.7844 52.2505 91.3288 53.8424 89.9387C41.4786 88.5312 28.4815 83.7582 28.4815 62.4291C28.4815 56.3518 30.6559 51.3862 34.2168 47.4879C33.6388 46.0859 31.7335 40.4243 34.756 32.757C34.756 32.757 39.4304 31.2609 50.0677 38.4628C54.508 37.2294 59.2699 36.6109 64.0005 36.5897C68.731 36.6109 73.4966 37.2294 77.9452 38.4628C88.5696 31.2609 93.2375 32.757 93.2375 32.757C96.2674 40.4243 94.3612 46.0859 93.7832 47.4879C97.3523 51.3862 99.5121 56.3518 99.5121 62.4291C99.5121 83.8089 86.4901 88.5164 74.0949 89.8945C76.0915 91.6219 77.8705 95.0095 77.8705 100.203C77.8705 107.651 77.806 113.645 77.806 115.479C77.806 116.96 78.808 118.696 81.6295 118.149C103.735 110.78 119.664 89.9221 119.664 65.3364C119.664 34.5932 94.7419 9.67188 64.0005 9.67188ZM29.1841 88.9672C29.0615 89.2437 28.6264 89.3267 28.2301 89.1368C27.8263 88.9552 27.5996 88.5782 27.7305 88.3007C27.8503 88.0159 28.2863 87.9366 28.6891 88.1274C29.0938 88.309 29.3242 88.6897 29.1841 88.9672ZM31.9222 91.4103C31.6567 91.6564 31.1378 91.5421 30.7856 91.1531C30.4215 90.7651 30.3533 90.2461 30.6225 89.9963C30.8962 89.7502 31.3995 89.8654 31.7646 90.2535C32.1287 90.6462 32.1996 91.1614 31.9222 91.4103ZM33.8006 94.5362C33.4596 94.7731 32.9019 94.551 32.5571 94.056C32.2161 93.561 32.2161 92.9674 32.5645 92.7295C32.9102 92.4917 33.4596 92.7056 33.8089 93.1969C34.149 93.7002 34.149 94.2938 33.8006 94.5362ZM36.9774 98.1565C36.6723 98.493 36.0225 98.4026 35.5468 97.9436C35.0601 97.4947 34.9246 96.8577 35.2307 96.5213C35.5394 96.1839 36.193 96.2788 36.6723 96.7342C37.1553 97.1822 37.3028 97.8237 36.9774 98.1565ZM41.0832 99.3787C40.9486 99.8147 40.3227 100.013 39.6922 99.8276C39.0626 99.6368 38.6506 99.1261 38.7778 98.6855C38.9087 98.2467 39.5373 98.0402 40.1724 98.2384C40.8011 98.4283 41.214 98.9353 41.0832 99.3787ZM45.7556 99.8971C45.7713 100.356 45.2367 100.737 44.5748 100.745C43.9093 100.76 43.371 100.388 43.3636 99.9367C43.3636 99.4731 43.8863 99.096 44.5518 99.085C45.2136 99.0721 45.7556 99.4408 45.7556 99.8971ZM50.3458 99.7211C50.4251 100.169 49.9651 100.629 49.3079 100.752C48.6617 100.87 48.0635 100.593 47.9815 100.149C47.9013 99.6898 48.3695 99.2298 49.0148 99.1109C49.6729 98.9966 50.262 99.2658 50.3458 99.7211Z" fill="#161614"/>
</svg>
