<svg width="187" height="169" viewBox="0 0 187 169" fill="none" xmlns="http://www.w3.org/2000/svg">
<path d="M49.5247 61.7134C51.6829 48.3871 62.5794 40.528 66.3262 33.0305" stroke="#202033" stroke-width="7" stroke-linecap="round"/>
<rect width="105" height="92" rx="46" transform="matrix(-0.987139 -0.159865 -0.159865 0.987139 139.199 62.6333)" fill="#E3E3EE" stroke="#E3E3EE" stroke-width="17" stroke-linecap="round" stroke-linejoin="round" stroke-dasharray="1 15"/>
<rect width="85.74" height="72.879" rx="36.4395" transform="matrix(-0.987139 -0.159865 -0.159865 0.987139 130.188 61.1738)" fill="white" stroke="white" stroke-width="17" stroke-linecap="round" stroke-linejoin="round" stroke-dasharray="1 15"/>
<rect x="74.375" y="63.8855" width="6" height="6" rx="3" transform="rotate(-113.328 74.375 63.8855)" fill="#343440"/>
<rect x="94.7148" y="69.4763" width="6" height="6" rx="3" transform="rotate(-113.328 94.7148 69.4763)" fill="#343440"/>
<path d="M80.0566 65.7761C81.4782 69.2895 86.9639 67.1196 89.0461 68.9591" stroke="#202033" stroke-width="3" stroke-linecap="round"/>
<path d="M101.914 56.1558C103.066 56.6558 104.064 57.156 104.816 57.6558" stroke="#202033" stroke-width="3" stroke-linecap="round"/>
<path d="M81.9785 50.1555C83.1309 50.6555 84.1289 51.1558 84.8809 51.6555" stroke="#202033" stroke-width="3" stroke-linecap="round"/>
<path d="M80.4286 66.7486C80.4292 74.2485 91.929 77.2484 88.427 69.2483" stroke="#202033" stroke-width="3" stroke-linecap="round"/>
<path d="M30.2598 109.662C15.7857 116.521 9.428 121.707 4.8125 118.931" stroke="#202033" stroke-width="7" stroke-linecap="round"/>
<path d="M65.0449 134.844C50.5709 141.702 44.4299 152.707 39.8145 149.931" stroke="#202033" stroke-width="7" stroke-linecap="round"/>
<path d="M98.8128 4.20263C129.313 -5.29737 146.812 8.20286 160.312 22.7023C166.647 29.5054 170.312 47.7023 181.812 60.2023C162.812 51.2023 150.312 84.2024 138.312 77.703C142.312 68.2026 146.812 55.2026 119.812 44.203C61.3125 34.2026 72.3125 32.703 64.8125 32.703C70.3125 24.7026 76.3125 11.2109 98.8128 4.20263Z" fill="#0D121B"/>
<path d="M98.8128 4.3286C129.313 -5.1714 146.812 8.32884 160.312 22.8283C166.647 29.6314 170.312 47.8283 181.812 60.3283C162.812 51.3283 154.312 84.6558 136.812 77.1558C145.312 59.655 146.312 37.6554 119.312 26.6558C82.9216 11.8303 69.8125 21.6558 64.8125 32.829C70.3125 24.8286 76.3125 11.3369 98.8128 4.3286Z" fill="#2D3546"/>
<path d="M141.812 60.5299C122.339 34.5962 93.8123 44.1548 65.8125 33.1558" stroke="#0D121B" stroke-width="3" stroke-linecap="round"/>
<path d="M183.314 61.5314C161.313 49.0298 155.814 84.5301 137.813 77.0304" stroke="#5248AE" stroke-width="3" stroke-linecap="round"/>
<path d="M137.313 76.5297C163.314 29.0296 77.3134 0.656121 65.8132 33.1558" stroke="#2D3546" stroke-width="3" stroke-linecap="round"/>
<path d="M128.312 1.15574C147.312 5.65572 153.312 11.001 163.312 23.8284C173.312 36.6558 173.812 47.1558 185.312 59.6558C187.693 62.0367 186.812 71.1557 175.914 71.6557C165.016 72.1557 149.662 81.8172 139.312 79.1557C190 48.9309 148.059 8.48255 126 4.43091C101.5 -0.0690918 80.5 9.43098 64.5 32.431C78.5 4.93091 109.312 -3.34423 128.312 1.15574Z" fill="#0D121B"/>
<path d="M118.313 96.5295C124.813 91.5285 136.12 80.9342 139.312 75.5283" stroke="#202033" stroke-width="7" stroke-linecap="round"/>
</svg>
