<svg width="198" height="197" viewBox="0 0 198 197" fill="none" xmlns="http://www.w3.org/2000/svg">
<path d="M95 37.8006C98.548 27.4062 104.558 17.1531 115.165 10.082" stroke="#11C06B" stroke-width="9" stroke-linecap="round"/>
<path d="M93.5468 39.4873C98.9448 34.0892 102.555 30.1863 108.159 33.6177C109.438 34.4008 110.378 35.3363 111.427 36.3859C112.87 37.829 112.001 37.6547 112.026 37.429C112.031 37.3892 117.728 35.9958 118.569 35.5904C119.384 35.198 120.378 34.7117 121.233 34.7018C123.17 34.6795 129.307 36.9544 129.306 39.4997C129.305 42.8705 131.839 41.3174 134.888 42.0841C137.249 42.6779 144.652 47.4978 141.089 51.061" stroke="black" stroke-width="9" stroke-linecap="round"/>
<path d="M50.2487 109.082C45.8209 112.782 42.13 118.48 40.5393 124.141C39.4495 128.019 38.8495 132.072 37.8948 135.983C37.7889 136.417 38.1898 136.829 37.6833 137.121C36.7889 137.638 35.8944 138.154 35 138.67" stroke="#11C06B" stroke-width="9" stroke-linecap="round"/>
<path d="M150.476 60.8445C152.114 62.248 158.962 66.2116 158.679 68.6635C158.416 70.9338 158.859 73.7811 159.341 75.9457C159.493 76.6294 158.64 77.0652 158.725 77.5373C159.129 79.7773 163.982 82.9858 165.486 84.4902C167.633 86.6368 169.695 87.728 169.413 90.8156C169.23 92.823 165.403 95.3201 165.703 96.1239C167.658 101.375 167.369 104.665 163.347 108.688C161.885 110.149 160.443 109.263 160.356 111.501C160.247 114.289 160.678 117.092 159.802 119.822C159.415 121.025 157.179 124.191 155.892 124.308C154.262 124.457 153.472 123.434 152.19 123.484C149.222 123.599 147.922 138.597 142.277 132.952" stroke="black" stroke-width="9" stroke-linecap="round"/>
<path d="M77.5694 44.2779C75.385 42.0935 68.935 45.2299 71.5779 47.8728" stroke="black" stroke-width="9" stroke-linecap="round"/>
<path d="M62.3906 60.2564C58.7266 60.361 55.8341 63.7646 54.2022 66.847C53.0522 69.0193 56.5952 74.5382 54.3576 75.0354C49.2825 76.1632 47.1295 80.5874 47.7003 85.1544C48.0448 87.9098 49.101 94.0999 51.2065 96.2054C51.6436 96.6425 53.3745 96.434 52.9374 96.8711C51.3282 98.4803 50.9246 100.49 51.0068 102.707C51.1448 106.433 51.1008 113.273 54.3576 115.082C55.2839 115.597 54.5041 122.556 55.498 123.082C56.0806 123.39 63.4939 124.78 64.0771 126.296C65.1641 129.122 68.5544 131.128 70.6456 133.22C72.6495 135.224 74.9458 135.493 77.436 136.815C79.1933 137.747 80.2157 137.54 81.7854 137.968C83.3988 138.408 82.4784 137.595 82.9837 139.256C84.3326 143.688 87.7724 148.853 92.7698 149.352C95.4753 149.623 95.398 147.949 97.998 147.082C100.599 146.215 101.623 146.799 102.998 149.352C103.691 150.639 105.88 154.499 107.414 154.669C109.863 154.942 112.176 151.232 114.498 149.352C117.181 147.18 117.282 153.954 119.754 151.483C120.732 150.505 121.674 149.454 122.705 148.531C123.352 147.953 123.943 149.215 124.791 149.019C127.116 148.483 129.496 148.271 129.496 144.936" stroke="black" stroke-width="9" stroke-linecap="round"/>
<path d="M101.13 139.083C99.0893 144.531 98.6204 151.307 99.9299 156.968C100.827 160.846 102.226 164.621 103.254 168.458C103.368 168.883 103.905 169.029 103.61 169.54C103.088 170.443 102.567 171.346 102.046 172.249" stroke="#11C06B" stroke-width="9" stroke-linecap="round"/>
<path d="M149.639 110.923C159.498 106.082 170.998 103.082 183.498 105.582" stroke="#11C06B" stroke-width="9" stroke-linecap="round"/>
<path d="M105.531 63.6526L105.296 63.418" stroke="black" stroke-width="7" stroke-linecap="round"/>
<path d="M115.506 75.2273C115.893 75.4502 115.98 75.6754 116.203 76.0124" stroke="black" stroke-width="7" stroke-linecap="round"/>
<path d="M103 69.8164C103.7 70.8909 108.5 75.8167 109 76.8163" stroke="black" stroke-width="3" stroke-linecap="round"/>
</svg>
