<svg width="116" height="29" viewBox="0 0 116 29" fill="none" xmlns="http://www.w3.org/2000/svg">
<path d="M0.6875 25.8V22.6H13.4875V16.2H3.8875V6.6H23.0875V3.4H3.8875V0.199999H26.2875V9.8H7.0875V13H26.2875V16.2H16.6875V22.6H29.4875V25.8H0.6875ZM58.2875 22.6V25.8H55.0875V22.6H58.2875ZM32.6875 16.2V0.199999H48.6875V3.4H35.8875V13H48.6875V16.2H32.6875ZM58.2875 16.2H55.0875V0.199999H58.2875V16.2ZM35.8875 25.8V22.6H39.0875V25.8H35.8875ZM39.0875 22.6V19.4H55.0875V22.6H39.0875ZM39.0875 25.8H55.0875V29H39.0875V25.8ZM64.6875 16.2V13H93.4875V16.2H80.6875V19.4H87.0875V22.6H71.0875V19.4H77.4875V16.2H64.6875ZM71.0875 22.6V25.8H67.8875V22.6H71.0875ZM71.0875 25.8H87.0875V29H71.0875V25.8ZM77.4875 6.6H74.2875V3.4H67.8875V0.199999H90.2875V3.4H83.8875V6.6H80.6875V3.4H77.4875V6.6ZM83.8875 6.6H90.2875V9.8H83.8875V6.6ZM90.2875 22.6V25.8H87.0875V22.6H90.2875ZM67.8875 9.8V6.6H74.2875V9.8H67.8875ZM99.8875 29V25.8H103.088V29H99.8875ZM112.7 29V25.8H115.9V29H112.7Z" fill="black"/>
</svg>
