<svg width="184" height="284" viewBox="0 0 184 284" fill="none" xmlns="http://www.w3.org/2000/svg">
<path d="M107.878 267.029C111.002 270.154 111.002 275.219 107.878 278.343V278.343C104.754 281.467 99.6888 281.467 96.5646 278.343L81.0082 262.787L92.322 251.473L107.878 267.029Z" fill="#4542EF"/>
<path d="M76.4987 267.029C73.3745 270.154 73.3745 275.219 76.4987 278.343V278.343C79.6228 281.467 84.6882 281.467 87.8124 278.343L103.369 262.787L92.055 251.473L76.4987 267.029Z" fill="#4542EF"/>
<path d="M172.064 204.082C172.273 207.814 170.079 211.178 166.693 212.758V212.758C165.398 213.363 163.998 213.678 162.569 213.635C156.209 213.442 137.462 212.352 129.227 206.176C135.226 192.176 149.726 184.176 162.227 172.176C169.639 179.235 171.57 195.266 172.064 204.082Z" fill="#D5D4E2"/>
<path d="M11.4713 205.082C11.2621 208.814 13.4562 212.178 16.8425 213.758V213.758C18.1375 214.363 19.5372 214.678 20.9657 214.635C27.3259 214.442 46.0732 213.352 54.3086 207.176C48.3087 193.176 33.8087 185.176 21.3086 173.176C13.896 180.235 11.9656 196.266 11.4713 205.082Z" fill="#D5D4E2"/>
<path d="M162.535 156C162.535 196.869 129.404 230 88.5352 230V230C47.6661 230 14.5352 196.869 14.5352 156L14.5352 8.99999L162.535 9L162.535 156Z" fill="white" stroke="white" stroke-width="17" stroke-linecap="round" stroke-linejoin="round" stroke-dasharray="1 15"/>
<rect x="132.535" y="203" width="88" height="55" rx="27.5" transform="rotate(-180 132.535 203)" fill="#D5D4E2"/>
<path d="M102.535 161C102.535 168.732 96.2671 175 88.5352 175V175C80.8032 175 74.5352 168.732 74.5352 161L74.5352 148L102.535 148L102.535 161Z" fill="white"/>
<rect x="127.535" y="194" width="29" height="29" rx="14.5" transform="rotate(-180 127.535 194)" fill="white"/>
<rect x="77.5352" y="193" width="29" height="29" rx="14.5" transform="rotate(-180 77.5352 193)" fill="white"/>
<rect x="118.535" y="192" width="15" height="15" rx="7.5" transform="rotate(-180 118.535 192)" fill="#343440"/>
<rect width="4" height="4" rx="2" transform="matrix(-1 -8.74228e-08 -8.74228e-08 1 116.535 180)" fill="white"/>
<rect x="72.5352" y="191" width="15" height="15" rx="7.5" transform="rotate(-180 72.5352 191)" fill="#343440"/>
<rect width="4" height="4" rx="2" transform="matrix(-1 -8.74228e-08 -8.74228e-08 1 70.5352 179)" fill="white"/>
<line x1="93.4268" y1="165.479" x2="89.5058" y2="162.343" stroke="#343440" stroke-width="3" stroke-linecap="round"/>
<line x1="1.5" y1="-1.5" x2="6.52129" y2="-1.5" transform="matrix(0.780869 -0.624695 -0.624695 -0.780869 81.7539 165.245)" stroke="#343440" stroke-width="3" stroke-linecap="round"/>
<line x1="88.2891" y1="160.5" x2="88.2891" y2="149.5" stroke="#343440" stroke-width="3" stroke-linecap="square"/>
</svg>
