<svg width="115" height="134" viewBox="0 0 115 134" fill="none" xmlns="http://www.w3.org/2000/svg">
<path d="M63.3204 127.61C65.7441 127.61 67.7949 125.819 68.1208 123.417L70.3166 107.238C70.8679 103.176 67.7096 99.5598 63.6099 99.5598V99.5598C59.6057 99.5598 56.4769 103.017 56.8754 107.001L58.5 123.248C58.7477 125.724 60.8316 127.61 63.3204 127.61V127.61Z" fill="#E5E5EB" stroke="#E5E5EB" stroke-width="6" stroke-linecap="round" stroke-linejoin="round" stroke-dasharray="1 5"/>
<path d="M26.8548 127.61C29.2786 127.61 31.3293 125.819 31.6553 123.417L33.851 107.238C34.4023 103.176 31.244 99.5598 27.1443 99.5598V99.5598C23.1402 99.5598 20.0114 103.017 20.4098 107.001L22.0344 123.248C22.2821 125.724 24.366 127.61 26.8548 127.61V127.61Z" fill="#E5E5EB" stroke="#E5E5EB" stroke-width="6" stroke-linecap="round" stroke-linejoin="round" stroke-dasharray="1 5"/>
<path d="M111.319 8.47763C111.38 7.39854 110.745 6.42548 109.766 5.96844V5.96844C109.391 5.79365 108.986 5.7025 108.573 5.71499C106.734 5.77062 101.311 6.08585 98.9297 7.87221C100.665 11.9213 104.859 14.235 108.474 17.7056C110.618 15.6639 111.176 11.0276 111.319 8.47763Z" fill="#BDBBED"/>
<path d="M64.8729 8.18856C64.8124 7.10948 65.4469 6.13642 66.4263 5.67938V5.67938C66.8009 5.50459 67.2057 5.41344 67.6188 5.42593C69.4583 5.48156 74.8804 5.79679 77.2622 7.58315C75.5269 11.6322 71.3333 13.946 67.718 17.4166C65.5742 15.3748 65.0158 10.7385 64.8729 8.18856Z" fill="#BDBBED"/>
<rect width="42.8043" height="78.3782" rx="21.4022" transform="matrix(-1 -8.74228e-08 -8.74228e-08 1 108.563 4.16357)" fill="white" stroke="white" stroke-width="6" stroke-linecap="round" stroke-linejoin="round" stroke-dasharray="1 5"/>
<rect width="57.3032" height="104.588" rx="28.6516" transform="matrix(1.31134e-07 -1 -1 -1.31134e-07 108.225 106.372)" fill="white" stroke="white" stroke-width="6" stroke-linecap="round" stroke-linejoin="round" stroke-dasharray="1 5"/>
<path d="M80.5516 130.816C82.9753 130.816 85.0261 129.025 85.352 126.623L87.5478 110.444C88.0991 106.381 84.9408 102.765 80.8411 102.765V102.765C76.8369 102.765 73.7081 106.223 74.1066 110.207L75.7312 126.454C75.9789 128.93 78.0628 130.816 80.5516 130.816V130.816Z" fill="white" stroke="white" stroke-width="6" stroke-linecap="round" stroke-linejoin="round" stroke-dasharray="1 5"/>
<path d="M42.8836 130.816C45.3074 130.816 47.3581 129.025 47.6841 126.623L49.8798 110.444C50.4311 106.381 47.2728 102.765 43.1732 102.765V102.765C39.169 102.765 36.0402 106.223 36.4386 110.207L38.0633 126.454C38.3109 128.93 40.3948 130.816 42.8836 130.816V130.816Z" fill="white" stroke="white" stroke-width="6" stroke-linecap="round" stroke-linejoin="round" stroke-dasharray="1 5"/>
<rect width="25.4512" height="15.907" rx="7.95351" transform="matrix(-1 -8.74228e-08 -8.74228e-08 1 99.8867 19.2026)" fill="#BDBBED"/>
<path d="M90.9209 31.6389C90.9209 29.4027 89.1081 27.5898 86.8718 27.5898V27.5898C84.6356 27.5898 82.8228 29.4027 82.8228 31.6389L82.8228 35.1095L90.9209 35.1095L90.9209 31.6389Z" fill="white"/>
<rect width="8.09812" height="8.09812" rx="4.04906" transform="matrix(-1 -8.74228e-08 -8.74228e-08 1 98.4407 21.8057)" fill="white"/>
<rect width="8.09812" height="8.09812" rx="4.04906" transform="matrix(-1 -8.74228e-08 -8.74228e-08 1 83.781 21.8188)" fill="white"/>
<rect width="4.40794" height="4.40794" rx="2.20397" transform="matrix(-1 -8.74228e-08 -8.74228e-08 1 96.6042 23.8228)" fill="#5856D4"/>
<rect x="96.2036" y="27.8301" width="1.60289" height="1.60289" rx="0.801444" transform="rotate(-180 96.2036 27.8301)" fill="white"/>
<rect width="4.40794" height="4.40794" rx="2.20397" transform="matrix(-1 -8.74228e-08 -8.74228e-08 1 82.1782 23.8228)" fill="#5856D4"/>
<rect x="81.7776" y="27.8301" width="1.60289" height="1.60289" rx="0.801444" transform="rotate(-180 81.7776 27.8301)" fill="white"/>
<line x1="0.5" y1="-0.5" x2="1.83258" y2="-0.5" transform="matrix(-0.780869 0.624695 0.624695 0.780869 88.9905 30.1816)" stroke="#5856D4" stroke-linecap="round"/>
<line x1="85.6862" y1="30.1036" x2="86.7268" y2="30.936" stroke="#5856D4" stroke-linecap="round"/>
<line x1="0.5" y1="-0.5" x2="3.54906" y2="-0.5" transform="matrix(-8.74228e-08 1 1 8.74228e-08 87.4502 31.0605)" stroke="#5856D4" stroke-linecap="square"/>
</svg>
