<svg width="32" height="32" viewBox="0 0 32 32" fill="none" xmlns="http://www.w3.org/2000/svg">
<g clip-path="url(#clip0_675_4856)">
<path d="M22.2139 25.436C18.6181 25.436 21.1284 24.601 23.7065 23.864C26.2847 23.127 24.6498 17.7629 23.7066 13.3317C22.7634 8.90037 23.1299 3.42812 9.8252 12.3575C-3.47956 21.2869 14.3769 22.6972 19.7714 22.6972C23.5307 22.6972 26.4883 20.5325 26.4883 16.7888C26.4883 12.9386 24.9771 10.4591 22.2139 7.92622C19.2299 5.1908 14.2995 6.54634 10.6121 6.74456C7.36957 6.91886 6.07027 11.6025 6.07027 15.5324C6.07027 19.4624 8.25095 20.2472 11.8673 21.7781C15.742 23.4183 18.9494 22.9856 21.1284 19.1521C22.8078 16.1976 24.3479 9.51068 20.9248 7.30256C13.8453 2.73581 10.1422 8.2784 7.83041 14.7537C6.12459 19.5316 5.78076 22.3866 10.6121 24.601C16.0457 27.0914 20.9459 23.6124 23.7066 19.4147C24.991 17.4617 25.3943 12.6283 25.267 10.2896C25.096 7.14475 19.6956 5.21789 17.329 6.74456" stroke="#10C06B" stroke-width="9" stroke-linecap="round"/>
<path d="M21.5069 23.3918C20.9915 23.3918 20.652 22.888 22.7645 22.2914C24.8769 21.6947 22.9873 17.3374 22.2145 13.7502C21.4417 10.163 21.742 5.73306 10.8408 12.9616C-0.0604954 20.1902 14.5702 21.3318 18.9902 21.3318C22.0703 21.3318 24.4937 19.5794 24.4937 16.5488C24.4937 13.432 23.2554 11.4248 20.9915 9.37438C18.5465 7.15999 14.939 7.98298 11.9177 8.14344C9.26094 8.28455 7.67336 10.8118 7.67336 16.0034C7.67336 21.195 9.5509 19.3485 12.5139 20.5878C15.6887 21.9156 18.3167 21.5653 20.102 18.462C21.478 16.0703 22.74 10.657 19.9352 8.86951C14.1347 5.17262 11.1005 9.65948 9.20632 14.9014C7.80866 18.7692 7.52694 21.0804 11.4855 22.873C15.9376 24.8891 19.9525 22.0727 22.2145 18.6746C23.2669 17.0936 23.5973 13.1809 23.493 11.2876C23.3529 8.74176 18.9281 7.18192 16.989 8.41779" stroke="black" stroke-width="6" stroke-linecap="round"/>
<circle cx="16.0034" cy="15.3755" r="8.17435" fill="black"/>
<path d="M14.4335 12.8613C14.2765 13.1157 14.3715 13.7163 14.2501 14.0309C14.1623 14.2586 14.1944 14.5311 14.1191 14.7477" stroke="white" stroke-width="3" stroke-linecap="round"/>
<path d="M18.2055 12.8613C18.1805 13.5085 18.0833 14.1941 17.8911 14.7477" stroke="white" stroke-width="3" stroke-linecap="round"/>
<path d="M30.3144 27.6855C30.2894 27.7934 30.1922 27.9077 30 27.9999" stroke="#10C06B" stroke-width="2" stroke-linecap="round"/>
<path d="M10.0317 18.0466C10.2071 18.0977 10.3509 18.3087 10.5001 18.4097C10.7767 18.597 11.0891 18.713 11.4131 18.7958C12.2748 19.0162 13.2064 19.3402 14.0905 19.4347C15.0684 19.5392 16.0461 19.5358 17.0282 19.5358C17.6618 19.5358 18.276 19.3704 18.9157 19.3704C20.16 19.3704 21.2519 18.4698 22.2933 17.9639" stroke="white" stroke-width="3" stroke-linecap="round"/>
</g>
<defs>
<clipPath id="clip0_675_4856">
<rect width="31.88" height="32" fill="white"/>
</clipPath>
</defs>
</svg>
