<svg width="32" height="32" viewBox="0 0 32 32" fill="none" xmlns="http://www.w3.org/2000/svg">
<path fill-rule="evenodd" clip-rule="evenodd" d="M4 0H8H20H24H28V4H32V8V12H28V20H32V24V28H28V32H20H8V28H4H0V24H4V20H0V8V4H4V0ZM20 4V8H24V4H20ZM20 24H16V28H20V24Z" fill="black"/>
<path d="M13 16H7V15H9V14H11V13H12.5V14H14V13H13V12H14V11H16V10H18V9H20V16H14H13Z" fill="#10C06B"/>
<path d="M13 17H12V16H18V17H19V16H20H21V17H26V18H25H24V19H22V20H21V19H20V18H19V19H18V20H19H20V21H19V22H17V23H15V24H13V17Z" fill="#008C48"/>
</svg>
