<svg width="19" height="21" viewBox="0 0 19 21" fill="none" xmlns="http://www.w3.org/2000/svg">
<path d="M13.5867 18.0559L10.1941 12.726C9.38323 13.0983 8.54306 13.2632 7.67363 13.2208C6.80419 13.1783 5.98459 12.9398 5.21482 12.5052C4.44504 12.0705 3.81817 11.473 3.33418 10.7127C2.81297 9.89379 2.54301 9.01774 2.52429 8.0845C2.5109 7.12733 2.71753 6.22531 3.14418 5.37843C3.58545 4.52225 4.21551 3.83355 5.03437 3.31233C5.86785 2.78181 6.75853 2.50254 7.70639 2.47452C8.66888 2.4372 9.57356 2.63186 10.4204 3.05851C11.258 3.47054 11.9374 4.08598 12.4586 4.90484C12.9333 5.65059 13.2046 6.46415 13.2725 7.34554C13.3404 8.22693 13.2142 9.07777 12.8939 9.89804C12.5789 10.6944 12.0738 11.3857 11.3786 11.9721L14.7711 17.302L13.5867 18.0559ZM10.1022 11.2743C10.731 10.8741 11.2109 10.3529 11.5418 9.71074C11.8635 9.05398 12.0103 8.36467 11.9823 7.6428C11.9689 6.91163 11.7621 6.23166 11.3619 5.60289C10.971 4.98875 10.4518 4.52817 9.80438 4.22114C9.17155 3.90481 8.4942 3.76064 7.77234 3.78864C7.04116 3.80201 6.36119 4.0088 5.73243 4.40902C5.10366 4.80924 4.62845 5.33773 4.30681 5.99449C3.97585 6.63663 3.81241 7.31597 3.81647 8.03252C3.83516 8.73976 4.03996 9.40045 4.43087 10.0146C4.83109 10.6434 5.35226 11.1232 5.9944 11.4542C6.65116 11.7758 7.34513 11.93 8.0763 11.9166C8.79816 11.8886 9.47348 11.6745 10.1022 11.2743Z" fill="white" fill-opacity="0.4"/>
</svg>
