<svg width="169" height="160" fill="none" xmlns="http://www.w3.org/2000/svg"><path d="M98.324 35.11C105.08 23.428 96.048 6.1 86.816 4.37" stroke="#10C06B" stroke-width="8" stroke-linecap="round"/><path d="M141.321 59.515c0-7.022.235-11.908-6.988-13.322-1.648-.322-3.146-.325-4.824-.325-2.307 0-1.473.452-1.313.29.028-.03-3.411-4.641-3.76-5.452-.337-.785-.743-1.748-1.419-2.31-1.53-1.275-8.253-3.787-10.287-2.13-2.694 2.192-3.478-.466-6.527-1.95-2.363-1.15-12.132-2.83-12.132 1.805" stroke="#fff" stroke-width="8" stroke-linecap="round"/><rect width="5.996" height="6.003" rx="2.998" transform="matrix(.3188 -.94782 -.94812 -.31791 94.559 59.553)" fill="#fff"/><rect width="5.996" height="6.003" rx="2.998" transform="matrix(.3188 -.94782 -.94812 -.31791 74.738 66.808)" fill="#fff"/><path d="M75.898 70.467c7.505-2.998 10.007-3.997 15.51-5.995" stroke="#fff" stroke-width="4" stroke-linecap="round"/><path d="M75.171 73.324c2.001-1.498 0-4.996-2.502-3.996" stroke="#fff" stroke-width="4" stroke-linecap="round"/><path d="M77.936 35.401c-2.474-.181-11.268-2.41-13.032-.296-1.633 1.958-4.308 3.817-6.46 5.118-.68.41-.342 1.407-.795 1.706-2.15 1.42-8.707.148-11.154.148-3.492 0-6.057-.75-8.339 1.855-1.483 1.694-.402 6.582-1.3 6.972-5.86 2.549-8.301 5.315-8.301 11.535 0 2.26 1.893 2.69.144 4.488-2.18 2.24-4.81 4.073-6.317 6.861-.665 1.23-1.42 5.406-.47 6.491 1.206 1.376 2.68 1.195 3.683 2.225 2.32 2.384-8.822 14.984.36 14.984M150.967 77.573c3.56 0 6.26 7.8 1.953 7.8M150.317 102.924c2.901 3.066 2.484 8.189 1.302 12.025-.833 2.703-8.218 4.311-6.799 6.536 3.216 5.047 1.366 10.399-2.821 13.651-2.527 1.961-8.432 6.139-11.863 6.139-.713 0-1.953-1.578-1.953-.867 0 2.619-1.309 4.582-3.183 6.32-3.149 2.919-12.509 4.139-16.637 2.961-1.175-.335-2.234-1.678-3.472-2.059-.726-.223-8.055 6.897-9.766 7.656-3.189 1.415-7.586.289-10.995.289-3.266 0-5.356-1.649-8.463-2.6-2.192-.671-2.857-1.671-4.485-2.6-1.673-.955-.26-.868-2.025.072-4.711 2.509-7.483-.06-11.963-3.719-2.425-1.982-4.35-1.541-5.763-4.362-1.413-2.822-4.29.192-7.49 1.15-1.614.484-2.645-4.644-4.034-5.753-2.218-1.772-5.978-.033-6.339-3.452-.416-3.951-4.34.189-4.34-3.834 0-1.592.088-3.213 0-4.803-.056-.996-1.566-.45-2.098-1.3-1.457-2.328-3.224-4.436-.506-7.15" stroke="#fff" stroke-width="8" stroke-linecap="round"/><path d="M4.082 88.74c9.723 2.198 20.626-5.647 33.964-2.245M137.159 108.259c9.328-6.853 23.468-3.705 27.84-6.853M94.065 124.401c14.395-13.003 28.406 5.981 31.409 1.485" stroke="#10C06B" stroke-width="8" stroke-linecap="round"/></svg>