<svg width="142" height="131" fill="none" xmlns="http://www.w3.org/2000/svg"><path d="M19.954 34.828c0-8.179-.234-13.87 6.987-15.517 1.648-.376 3.146-.379 4.823-.379 2.307 0 1.473.527 1.313.337-.029-.034 3.41-5.405 3.76-6.35.336-.914.742-2.036 1.418-2.691 1.53-1.485 8.252-4.41 10.285-2.481 2.693 2.554 3.477-.542 6.526-2.271 2.362-1.34 12.13-3.296 12.13 2.102M82.514 7.88c2.43-.178 11.07-2.363 12.803-.291 1.605 1.918 4.234 3.74 6.349 5.015.668.403.335 1.379.78 1.672 2.112 1.392 8.555.146 10.959.146 3.431 0 5.951-.736 8.193 1.817 1.458 1.66.395 6.45 1.277 6.832 5.759 2.497 8.157 5.208 8.157 11.303 0 2.215-1.861 2.636-.142 4.398 2.141 2.194 4.726 3.991 6.207 6.723.653 1.205 1.395 5.297.461 6.36-1.184 1.349-2.633 1.172-3.618 2.181-2.279 2.336 8.668 14.683-.354 14.683M11.015 50.562c-3.491 0-6.14 7.263-1.915 7.263M11.654 74.166c-2.844 2.856-2.436 7.626-1.277 11.197.817 2.517 8.059 4.014 6.668 6.086-3.155 4.699-1.34 9.682 2.766 12.709 2.477 1.827 8.268 5.716 11.633 5.716.699 0 1.915-1.469 1.915-.807 0 2.438 1.284 4.267 3.121 5.884 3.088 2.719 8.518 7.933 12.567 6.837 1.151-.312 6.09 5.551 7.304 5.196.712-.207 7.746-4.771 9.424-4.064 3.127 1.317 7.44.269 10.782.269 3.203 0 5.253-1.536 8.299-2.421 2.15-.624 2.801-1.556 4.398-2.421 1.64-.889.256-.807 1.986.067 4.62 2.336 11.496 3.643 15.889.236 2.378-1.845.978-3.055 2.364-5.681 1.385-2.628 2.671-2.961 5.809-2.068 1.582.45 6.416 1.716 7.778.683 2.175-1.65 1.059-6.212 1.412-9.395.409-3.679 5.903 1.377 5.903-2.368 0-1.482-.087-2.992 0-4.472.054-.928 1.535-.42 2.057-1.21 1.429-2.168 3.161-4.131.496-6.658" stroke="#fff" stroke-width="8" stroke-linecap="round"/><path d="M4.973 88.785c-3.298-7.021 3.13-10.232 3.167-14.73M77.627 77.24c-9.18 12.961-18.993 23.233-46.218 29.89M31.31 99.571c-19.36-17.633-1.83 22.203-6.936 23.799" stroke="#10C06B" stroke-width="8" stroke-linecap="round"/><path d="M48.318 99.697c-19.36-17.634-5.804 22.898-10.91 24.494M31.286 79.08c-.949 7.01-22.156 15.974-26.2 9.21" stroke="#10C06B" stroke-width="8" stroke-linecap="round"/><path d="M48.066 49.266c6-4.998 0-4.998 9.5-1" stroke="#fff" stroke-width="3" stroke-linecap="round"/><path d="M56.35 47.732c7.622 26.554-9.322.845-7.06 1.068" stroke="#fff" stroke-width="3" stroke-linecap="round"/><rect width="7.997" height="7.999" rx="3.998" transform="rotate(-120.013 35.21 12.497) skewX(-.026)" fill="#fff"/><rect width="7.997" height="7.999" rx="3.998" transform="rotate(-120.013 45.906 6.673) skewX(-.026)" fill="#fff"/></svg>