<svg width="161" height="231" fill="none" xmlns="http://www.w3.org/2000/svg"><path d="M23.547 77.816c-8.267 0-6.326 8.5-3.22 12.494.521.67-.793.21-1.674.515-3.202 1.108-4.043 4.019-4.315 7.148-.286 3.287-.902 8.498 0 11.657 1.505 5.267-5.86 6.854-5.86 12.879 0 3.566 2.691 7.634 5.796 9.531 3.362 2.055 1.402 2.487-1.16 3.993-4.081 2.401-2.756 11.815.258 14.554.982.893 7.159 4.304 7.084 4.38-2.136 2.135-8.71 2.692-9.596 5.795-1.626 5.691-4.82 16.744 4.573 16.744 4.783 0-5.886 3.961-7.406 4.637C5.036 183.472 5 188.736 5 191.352c0 3.69 1.327 6.781 4.637 8.436 3.402 1.701 3.627.782.58 3.22-2.228 1.783-4.264 15.944.579 16.229 2.705.159 3.37-2.233 2.254 1.674-.52 1.817-2.453 4.001.064 5.539" stroke="url(#a)" stroke-width="9" stroke-linecap="round"/><path d="M30.502 58.11c1.175-2.496 1.588-4.636 4.637-4.636 3.898 0 5.796.673 5.796-4.058 0-7.086 2.66-18.728 12.107-13.33 4.488 2.565-1.028 2.602 4.121-.258 7.37-4.095 17.91-2.834 26.017-3.735 4.648-.516 2.67 2.867 6.698 1.417 3.87-1.394 7.13-2.983 11.334-1.481 3.166 1.13 4.103 9.724 6.504 9.724 5.358 0 11.41-2.489 16.937-.773 2.032.63 5.539 2.56 5.539 4.959 0 3.394 6.227 4.05 8.629 5.216 9.918 4.817-1.168 7.5 4.379 12.494 2.945 2.65 10.16 12.184 4.38 15.584-4.1 2.412-2.588 1.773-.902 4.38 1.804 2.787 4.477 4.58 6.118 7.534 2.036 3.665 4.225 7.358 1.739 11.399-1.689 2.744-2.964 2.626-1.095 6.053 2.537 4.652 3.413 5.093 3.413 10.69 0 4.768-3.562 7.904-7.535 10.111-3.006 1.67 7.535 16.392 7.535 21.96 0 2.872-.198 5.35-2.383 7.535-.729.729-3.149 1.034-3.348 1.932-.678 3.048 2.375 5.491 3.799 7.792 1.937 3.13 1.932 5.925 1.932 9.467 0 5.192-12.054.711-8.629 7.019 2.351 4.333 16.471 19.726 3.091 20.222-3.095.114-1.672 3.042.322 4.636 1.15.921.811 6.028-.58 4.637" stroke="url(#b)" stroke-width="8" stroke-linecap="round"/><path d="M21.866 33.68c0-9.686-1.085-21.632 7.535-28.336 6.765-5.263 8.694 6.314 8.694 10.947M126.449 18.943c.638-5.742 6.64-13.278 12.107-8.114 4.65 4.39 7.474 9.65 5.281 16.228" stroke="#10C06B" stroke-width="8" stroke-linecap="round"/><path d="M60.03 74.631c3.41-2.2 3.812-2.318 7.728-2.318 3.537-.68 4.004 0 7.753 0 4.641 0 9.196-.382 13.844-.382 5.453 0 11.549.163 16.821 1.7 4.62 1.348 9.164 2.344 11.037 7.401.919 2.482 1.616 4.86 1.616 7.507 0 2.56.487 5.624-.085 8.102-.774 3.357-2.172 5.785-3.743 8.762-.989 1.874-2.323 2.511-3.827 3.828-1.083.947-3.467 1.581-4.892 1.829-3.221.56-6.284 1.463-9.463 2.211-3.254.766-6.37.766-9.695.766h-.108c-4.86 0-10.624.411-15.354-.851-3.729-.994-8.58-1.357-11.803-3.572-2.323-1.598-4.155-4.743-5.422-7.231-1.288-2.527-1.907-6.331-2.366-9.15l-.016-.1c-.583-3.582-.377-7.555.935-10.952 1.428-3.697 3.773-5.442 7.04-7.55z" fill="#fff" stroke="#fff" stroke-width="18" stroke-linecap="round"/><path d="M72.762 78.76c-.108 2.046-.754 3.971-.754 6.032M96.891 78.006c-.693 1.56-1.508 3.557-1.508 5.278" stroke="#000" stroke-width="8" stroke-linecap="round"/><path d="M80.707 93.317c1.262 1.498 2.904 3.809 3.986 5.636.99 1.67 3.432-3.707 4.52-4.855" stroke="#000" stroke-width="6" stroke-linecap="round"/><path d="M84.748 98.12c0 2.13-.543 6.366-1.508 8.295" stroke="#000" stroke-width="6" stroke-linecap="round"/><defs><linearGradient id="a" x1="14.274" y1="77.816" x2="14.274" y2="226.45" gradientUnits="userSpaceOnUse"><stop offset=".568" stop-color="#fff"/><stop offset="1" stop-color="#fff" stop-opacity="0"/></linearGradient><linearGradient id="b" x1="93.751" y1="31.422" x2="93.751" y2="214.839" gradientUnits="userSpaceOnUse"><stop offset=".568" stop-color="#fff"/><stop offset="1" stop-color="#fff" stop-opacity="0"/></linearGradient></defs></svg>