<svg width="153" height="160" fill="none" xmlns="http://www.w3.org/2000/svg"><path d="M38.204 82.365c-8.75 2.119-17.137 4.518-24.367 10.226-5.334 4.21-10.331 13.763-8.688 20.672.6 2.522 2.166 9.943 6.116 8.986 3.67-.888 5.564-.684 4.863 3.147-.833 4.55 7.173 6.057 10.23 5.554 3.207-.528 6.445-.943 9.755-1.745 3.56-.862 2.367 3.26 3.516 5.635 2.194 4.535 13.574 3.17 17.194 2.941 11.123-.703 21.148-2.033 32.015-4.665.854-.206 1.797-2.034 2.168-1.039.969 2.6 1.115 5.008 3.755 6.641 2.715 1.679 10.487-.347 13.268-.983 6.503-1.485 12.972-3.141 19.455-4.711 4.319-1.046 7.045-2.02 10.377-4.847 3.696-3.137 6.919-5.46 8.973-10.033 2.68-5.968.914-10.672-2.266-15.822" stroke="#fff" stroke-width="8" stroke-linecap="round"/><path d="M47.93 76.92c-1.886 3.56 3.76 8.403 5.855 10.32 5.43 4.973 15.113 6.368 22.124 6.655 14.341.588 28.806 3.795 43.094 2.88 3.992-.255 7.942-.673 11.93-1.173 2.959-.37 7.54-2.17 10.427-1.633 2.095.391 4.192-.698 4.823-2.884.79-2.735 1.435-4.265.726-7.246-.332-1.395-2.293-4.398-3.566-4.696M50.126 73.299c-1.733-7.288 6.266-9.846 12.032-8.612 3.097.663 16.461 3.64 23.53 1.928 7.07-1.712 5.125-5.957 6.238-9.137M121.162 17.378c.593-2.989.9-8.393-2.252-10.159-3.381-1.894-7.827-3.21-11.782-2.102-9.569 2.678-7.194 15.114-9.364 22.505" stroke="#10C06B" stroke-width="8" stroke-linecap="round"/></svg>