<svg width="157" height="133" fill="none" xmlns="http://www.w3.org/2000/svg"><path d="M132.74 114.193c1.691 0 3.242-.367 4.474-1.599M152.482 122.471v.32" stroke="#10C06B" stroke-width="8" stroke-linecap="round"/><path d="M112.546 97.052C87.808 80.46 64.381 66.583 50.657 52.85 45.314 47.503 39.4 39.33 32.685 35.81c-2.088-1.095-3.257-2.98-5.136-4.195-.746-.484 2.147 18.362 2.41 19.61 3.213 15.204 6.092 31.081 11.004 45.827 1.491 4.475 10.717-9.284 11.004-9.648 11.108-14.1 23.198-27.771 33.221-42.68 1.983-2.95 10.487-12.165 2.62-12.165-13.565 0-27.01-.818-40.557-.944-6.744-.063-16.337-1.123-22.531.944" stroke="#fff" stroke-width="8" stroke-linecap="round"/></svg>