<svg width="178" height="158" fill="none" xmlns="http://www.w3.org/2000/svg"><path d="M57.75 14.399c3.754 7.709 9.697 14.144 14.993 20.829 4.107 5.182 8.135 9.84 13.197 14.07 8.448 7.062 17.303 14.303 26.775 19.98 6.668 3.997 13.777 6.936 20.798 10.187 1.749.81 2.732.552 2.55 2.382-.757 7.583-1.524 15.324-1.173 22.96.336 7.293.962 15.193 3.272 22.106" stroke="#fff" stroke-width="8" stroke-linecap="round"/><path d="M56.647 13.298c-4.793 4.786-6.777 13.417-8.187 19.903-1.918 8.826-4.76 19.066-2.066 28.13 2.138 7.197 6.672 12.496 12.769 16.9 3.104 2.241 5.885 5.019 9.176 6.965.918.542 6.095 2.188 6.117 3.015.232 8.42-.126 19.805 6.413 26.178 5.13 5 11.576 8.54 18.556 10.308 4.681 1.186 9.805 3.504 14.68 3.67 3.994.137 8.373 1.135 12.354 1.838 2.935.518 9.006.863 11.334-1.461" stroke="#fff" stroke-width="8" stroke-linecap="round"/><path d="M46.164 60.532c-.791 1.016.284 5.36.284 6.74.002 3.31 1.054 6.939 2.255 10.02 1.234 3.164 4.36 5.742 6.13 8.615 1.226 1.99 2.235 4.148 3.723 5.963 1.74 2.124 3.772 3.977 5.472 6.15 4.256 5.441 9.36 10.158 13.79 15.423.824.979 3.584 3.73 4.94 3.279" stroke="#fff" stroke-width="8" stroke-linecap="round"/></svg>