<svg width="192" height="178" fill="none" xmlns="http://www.w3.org/2000/svg"><path d="M55.046 35.926c-4.937-.892-12.973 5.637-17.434 7.94-5.605 2.893-9.57 7.317-8.195 14.445C30.443 63.633 40.232 74.07 37.12 78.5c-5.91 8.417-15.624 4.198-6.031 14.163 5.18 5.38-1.89 7.969-.686 13.477.98 4.483-.033 9.608 1.94 13.961 4.505 9.94 24.605 17.334 34.217 17.397M137.151 141.715c4.937.892 12.974-5.637 17.434-7.94 5.605-2.893 9.57-7.317 8.195-14.445-1.026-5.322-10.815-15.759-7.704-20.189 5.911-8.417 15.624-4.198 6.031-14.163-5.179-5.38 1.89-7.969.686-13.477-.98-4.483.034-9.608-1.939-13.96-4.506-9.94-24.606-17.335-34.217-17.398" stroke="#fff" stroke-width="8" stroke-linecap="round"/><path d="M111.017 58.166c-3.335 8.177-6.581 15.976-10.615 23.911-3.474 6.833-9.332 12.288-12.734 18.978-3.073 6.044-7.176 11.08-10.262 17.15" stroke="#10C06B" stroke-width="8" stroke-linecap="round"/></svg>