<svg width="160" height="74" fill="none" xmlns="http://www.w3.org/2000/svg"><path d="M23.294 6.406C26.007 4.797 31.08 4 35.405 4c4.325 0 12.311 2.884 13.52 4.414 7.65 9.684 9.92 23.993 8.278 36.099-.907 6.695-4.093 13.55-8.923 18.35-8.061 8.01-22.95 8.77-32.621 3.715C4.919 60.964 2.662 44.796 4.653 34.095c1.245-6.69 4.781-14.72 9.32-19.782 2.694-3.004 5.85-5.85 9.32-7.907z" stroke="#fff" stroke-width="8" stroke-linecap="round"/><path d="M76.923 6.406C79.636 4.797 84.709 4 89.034 4c4.325 0 12.311 2.884 13.519 4.414 7.65 9.684 9.92 23.993 8.279 36.099-.907 6.695-4.093 13.55-8.923 18.35-8.062 8.01-22.95 8.77-32.621 3.715-10.74-5.614-12.997-21.782-11.006-32.483 1.245-6.69 4.781-14.72 9.32-19.782 2.694-3.004 5.85-5.85 9.32-7.907z" stroke="#fff" stroke-width="8" stroke-linecap="round"/><path d="M33.333 36.407c-.857.096-1.461 5.92-1.482 6.915-.034 1.62-.296 3.176-.296 4.788M86.713 35.589c-.925 1.99-.71 5.423-.71 7.628 0 1.18-.355 2.279-.355 3.515" stroke="#10C06B" stroke-width="8" stroke-linecap="round"/><path d="M35.111 4c2.439 0 5.186.828 7.5 1.136 4.19.557 8.588 1.459 12.793 1.565 5.465.137 10.738 2.7 16.152 2.7M105.334 8.501c1.632 0 3.305 1.7 4.875 2.43 2.547 1.184 5.058 2.284 7.593 3.563 1.355.683 2.564 1.945 3.944 2.532.937.4 1.905.602 2.833 1.03 1.902.877 3.858 1.572 5.794 2.306 2.666 1.013 5.206 2.427 7.861 3.625 1.49.672 3.014 1.604 4.543 1.956 1.178.272 2.2 1.462 3.446 1.462M90.223 69.538c1.384.318 2.688-.121 4.043-.186 1.957-.094 3.956.29 5.906.12 2.934-.252 5.856-.448 8.781-.843 6.505-.88 13.188-1.39 19.83-.896 3.098.23 6.31-.042 9.355-.454 1.555-.21 3.075-.528 4.656-.305M28.896 69.955c2.907-.147 5.772.07 8.672-.076l6.415-.323 4.97-.25c1.749-.088 3.504.184 5.23.097l11.662-.587c1.069-.054 2.116.074 3.174.02 1.655-.082 3.691-.8 5.2-.26" stroke="#fff" stroke-width="8" stroke-linecap="round"/><path d="M146.302 27.406c.277 2.343 2.55 4.642 3.273 6.959.723 2.317 1.091 4.398 1.091 6.787 0 5.13-.156 10.024-1.071 15.066-.463 2.556-1.672 4.397-3.01 6.667-.501.851-1.175 1.462-1.737 2.297-.26.385-.853.606-1.091.96-1.006 1.493-.932.966-1.091-.789M152.49 30.106c.921.198 1.147 2.128 1.417 2.728.757 1.682 1.081 3.55 1.507 5.31.327 1.347.351 3.114.351 4.482 0 1.177.234 2.323.234 3.466 0 3.168-.099 6.137-.481 9.256-.1.822-.717 1.508-.922 2.303-.218.844-.593 1.647-.936 2.46-.381.902-.774 1.928-1.222 2.794-.238.462-.347 1.178-.883 1.409" stroke="#fff" stroke-width="8" stroke-linecap="round"/></svg>