<svg width="181" height="153" fill="none" xmlns="http://www.w3.org/2000/svg"><path d="M40.475 37.731c-2.154-1.352-8.585-11.019-10.569-8.805-2.599 2.9-1.127 14.322-.927 18.51.48 10.049 3.854 46.472 9.342 55.447 6.933 3.9 57.97 19.402 65.957 19.293 5.357-.074 11.514.943 16.786-.283 4.32-1.005 9.298-1.194 13.767-1.585 3.295-.289 9.9-1.668 11.727-4.839" stroke="#fff" stroke-width="8" stroke-linecap="round"/><path d="M45.2 8.068c6.235 7.213 14.452 12.423 22.048 18.088 5.89 4.392 11.543 8.242 18.183 11.335 11.081 5.163 22.65 10.4 34.431 13.778 8.294 2.378 16.756 3.49 25.214 4.964 2.107.367 3.087-.194 3.417 1.828 1.367 8.377 2.768 16.927 5.336 25.04 2.454 7.75 5.393 16.071 9.854 22.842" stroke="#10C06B" stroke-width="8" stroke-linecap="round"/><path d="M43.705 7.203c-3.762 6.53-3.41 16.388-3.058 23.774.48 10.048.374 21.885 5.863 30.86 4.358 7.127 10.739 11.523 18.537 14.502 3.97 1.517 7.748 3.704 11.834 4.849 1.14.319 7.16.597 7.422 1.48 2.666 8.993 5.552 21.346 14.39 26.318 6.932 3.9 14.858 5.85 22.845 5.741 5.357-.074 11.514.943 16.786-.283 4.32-1.005 9.298-1.194 13.767-1.585 3.295-.289 9.9-1.667 11.727-4.839" stroke="#10C06B" stroke-width="8" stroke-linecap="round"/><path d="M46.031 61.044c-.556 1.321 1.844 5.686 2.24 7.171.952 3.56 3.122 7.161 5.294 10.13 2.23 3.048 6.321 4.921 9.043 7.502 1.885 1.787 3.586 3.819 5.701 5.342 2.477 1.784 5.185 3.192 7.631 5.04 6.123 4.627 12.948 8.23 19.208 12.618 1.163.815 4.911 2.98 6.235 2.104" stroke="#10C06B" stroke-width="8" stroke-linecap="round"/></svg>