<svg width="922" height="775" fill="none" xmlns="http://www.w3.org/2000/svg"><path d="M88.724 72.34 46.56 127.889a30.252 30.252 0 0 0-3.5 5.898L4.336 220.035a30.242 30.242 0 0 0-2.474 15.668l9.051 82.889L43.05 446.597a30.24 30.24 0 0 0 4.852 10.392l72.251 99.605a30.242 30.242 0 0 0 3.039 3.57l75.576 75.977a30.265 30.265 0 0 0 5.068 4.099l94.216 60.665a30.171 30.171 0 0 0 3.831 2.092l103.035 46.957 48.106 19.768a30.239 30.239 0 0 0 23.091-.043l47.501-19.725 110.332-46.69a30.262 30.262 0 0 0 5.262-2.873l88.788-60.6a30.352 30.352 0 0 0 3.656-2.935l81.335-76.395a30.27 30.27 0 0 0 3.775-4.286l71.703-98.849a30.233 30.233 0 0 0 5.036-11.17l27.742-124.311a30.27 30.27 0 0 0 .726-6.586v-83.176a30.26 30.26 0 0 0-1.339-8.898L893.6 135.377a30.245 30.245 0 0 0-4.356-8.766l-40.185-55.84a30.284 30.284 0 0 0-5.301-5.663l-48.899-40.341a30.234 30.234 0 0 0-12.184-6.078l-55.094-13.23a30.235 30.235 0 0 0-5.651-.802L639.56.814a30.238 30.238 0 0 0-14.071 2.745l-77.205 35.6a30.249 30.249 0 0 0-8.425 5.786l-52.633 51.209c-11.476 11.166-29.667 11.45-41.487.65l-56.276-51.425a30.242 30.242 0 0 0-10.074-6.1L279.473 2.986a30.243 30.243 0 0 0-14.231-1.564l-71.708 9.341a30.245 30.245 0 0 0-11.448 3.935l-84.63 49.875a30.24 30.24 0 0 0-8.733 7.769z" fill="#10C06B"/></svg>